{"glyphs":{"0":{"ha":991,"x_min":26,"x_max":963,"o":"m 26 427 q 172 748 26 615 q 528 879 321 879 q 841 748 711 879 q 963 452 963 621 q 832 137 963 271 q 495 0 693 0 q 165 126 309 0 q 26 427 26 254 m 163 467 q 264 220 163 324 q 504 116 366 116 q 738 222 642 116 q 830 472 830 328 q 718 712 830 616 q 466 789 617 803 q 211 640 315 774 q 163 467 163 548 z "},"1":{"ha":300,"x_min":4,"x_max":282,"o":"m 81 613 q 7 654 28 613 q 4 666 4 660 q 9 682 4 676 l 12 683 l 14 684 q 125 850 115 731 l 125 852 l 126 855 q 175 884 140 884 q 258 847 245 884 l 258 845 l 258 843 q 269 445 260 699 q 277 200 274 300 q 282 47 281 100 l 282 43 l 280 39 q 228 5 258 5 q 169 18 188 5 l 167 19 l 165 21 q 153 77 153 37 q 143 366 150 184 l 140 640 q 81 613 106 613 z "},"2":{"ha":891,"x_min":24,"x_max":870,"o":"m 24 68 q 146 177 32 140 l 458 450 q 614 669 614 583 q 577 730 614 708 q 459 758 541 753 q 332 741 378 762 q 273 671 287 719 l 271 667 l 269 665 q 254 621 264 657 q 234 588 248 600 q 199 576 220 576 l 199 576 l 198 576 q 158 600 171 578 q 145 655 145 621 q 148 690 145 674 q 256 834 159 786 q 451 873 336 873 q 503 871 469 873 q 654 807 596 862 q 716 652 716 747 q 564 396 716 547 q 437 280 517 349 q 317 174 366 218 q 404 174 361 173 q 527 168 465 176 q 644 161 587 161 q 833 224 715 164 l 838 227 l 843 226 q 870 177 870 221 l 870 172 l 867 168 q 616 38 762 43 l 616 38 l 217 54 q 152 33 196 54 q 108 16 127 22 q 75 11 90 11 l 75 11 l 74 11 q 37 28 50 13 q 24 67 24 43 l 24 68 l 24 68 z "},"3":{"ha":725,"x_min":26,"x_max":694,"o":"m 142 652 l 134 679 l 134 650 q 79 672 98 650 q 60 734 60 694 q 132 862 60 839 q 291 889 216 889 q 577 827 480 889 q 675 644 669 766 l 675 643 l 675 643 q 644 531 673 589 q 583 458 617 481 q 663 393 642 425 q 694 252 694 348 q 608 63 694 127 q 337 0 520 0 q 103 72 192 0 q 26 201 26 134 q 26 208 26 204 q 27 231 26 223 q 30 251 27 239 q 38 267 32 262 q 54 272 43 272 q 108 236 85 272 l 109 235 l 109 234 q 347 106 163 117 q 479 138 418 106 q 565 258 565 189 q 551 337 565 317 q 454 386 500 383 q 368 389 403 389 q 240 410 294 389 l 235 412 l 233 416 q 218 457 218 439 q 241 494 218 482 q 304 506 265 506 q 445 509 403 507 q 526 562 485 515 q 549 642 549 604 l 549 643 l 549 644 q 549 654 549 649 q 489 749 550 717 q 288 784 425 783 q 176 768 227 784 q 143 728 143 747 q 175 682 143 707 l 203 661 l 168 656 q 142 652 151 654 z "},"4":{"ha":625,"x_min":19,"x_max":583,"o":"m 446 545 q 454 377 447 475 q 526 395 489 385 q 564 397 550 401 q 580 378 577 392 q 577 355 583 364 q 539 317 569 333 q 458 286 509 301 q 470 132 461 199 q 493 22 479 66 q 496 7 496 15 q 457 -50 496 -36 l 455 -52 l 444 -52 q 345 -5 363 -52 q 326 210 326 45 q 327 263 326 243 l 323 263 q 109 295 163 263 q 36 376 54 327 q 19 475 19 424 q 148 848 19 659 q 184 873 165 873 q 215 862 204 873 q 226 833 226 850 q 195 745 226 804 q 118 511 132 619 q 137 409 118 440 q 191 368 155 379 q 307 355 235 355 q 323 356 313 355 q 338 564 328 490 q 347 606 340 589 q 369 638 354 627 q 404 645 383 650 q 446 545 446 633 z "},"5":{"ha":794,"x_min":27,"x_max":768,"o":"m 663 886 l 674 886 q 703 878 692 886 q 748 802 742 852 l 749 795 l 744 791 q 715 777 732 780 l 713 777 q 549 770 684 774 q 393 766 406 767 l 216 766 q 191 616 191 722 q 193 576 191 596 q 381 590 242 590 q 673 515 578 590 q 768 295 768 441 q 638 67 768 151 q 416 3 534 3 q 171 58 294 3 q 27 231 27 126 q 64 322 27 289 q 153 354 98 354 q 374 231 278 354 l 376 227 l 376 222 q 347 181 376 197 q 294 167 322 167 q 256 180 269 167 q 119 271 170 271 q 102 263 108 271 q 96 233 96 256 q 206 136 96 183 q 368 107 300 107 q 604 197 522 107 q 648 323 648 249 q 646 344 648 334 q 562 463 637 428 q 328 484 484 498 l 328 484 l 327 484 q 219 468 289 484 l 218 468 l 216 468 q 186 455 208 467 q 147 440 159 441 l 127 438 l 126 438 q 89 451 105 438 l 83 454 l 83 461 q 72 600 72 562 q 85 840 72 680 l 86 846 l 102 861 l 153 869 l 331 874 q 663 886 583 880 l 663 886 z "},"6":{"ha":865,"x_min":30,"x_max":828,"o":"m 385 12 q 245 3 307 -6 q 36 255 68 31 q 35 336 30 306 q 60 484 37 421 q 215 760 100 612 l 216 759 l 216 760 q 509 931 399 927 l 510 931 l 525 929 l 528 930 q 543 908 545 920 q 529 880 541 897 q 504 853 517 865 q 459 816 490 842 q 441 802 448 806 q 169 383 208 600 q 241 114 147 186 q 290 97 265 101 q 347 100 313 94 q 338 284 323 213 q 551 633 376 494 l 552 635 l 553 635 q 721 676 650 689 q 787 641 762 669 q 821 566 812 612 q 820 471 828 524 l 818 458 q 505 57 777 230 q 500 -37 530 3 q 491 -43 496 -41 q 442 -43 468 -42 q 385 12 416 -27 m 476 304 q 475 154 460 231 q 666 368 614 243 l 667 369 q 701 473 692 424 l 703 482 q 682 558 713 538 l 674 560 q 607 540 645 568 q 526 444 570 512 q 476 304 488 366 z "},"7":{"ha":758,"x_min":22,"x_max":739,"o":"m 102 747 l 101 747 q 79 746 96 748 q 37 760 52 744 q 25 776 29 767 q 22 794 22 785 q 52 839 22 819 q 107 858 78 858 l 115 858 q 312 863 178 873 q 508 840 447 852 q 606 854 561 830 q 677 876 631 876 q 721 857 703 876 q 739 815 739 840 q 713 743 739 763 l 713 743 q 655 719 692 729 q 426 106 463 458 q 398 41 423 74 q 335 4 369 4 q 277 21 298 4 q 256 68 256 37 l 256 68 l 256 69 q 511 728 272 311 q 103 747 356 755 l 102 747 z "},"8":{"ha":751,"x_min":31,"x_max":722,"o":"m 31 256 q 87 365 31 313 q 260 468 144 417 q 64 660 64 546 q 155 829 64 762 q 378 892 245 892 q 618 830 520 892 q 720 670 720 765 q 497 473 720 555 q 636 412 593 443 q 722 247 722 352 q 631 73 722 138 q 528 26 588 42 q 390 11 466 11 q 127 77 224 11 q 55 156 79 111 q 31 256 31 201 m 376 427 q 168 245 168 344 q 221 157 168 194 q 410 111 290 111 q 524 140 468 111 q 589 231 589 176 q 515 361 589 302 q 376 427 477 391 m 229 758 q 194 667 194 726 q 240 606 194 642 q 378 530 286 570 q 537 615 485 575 q 587 684 587 655 q 542 771 587 728 q 340 800 492 817 q 229 758 264 791 z "},"9":{"ha":661,"x_min":22,"x_max":635,"o":"m 509 654 q 452 779 496 747 l 451 779 l 450 780 q 348 821 408 821 q 222 782 268 815 q 163 688 177 749 q 166 500 134 561 q 252 439 197 442 q 431 507 352 437 q 509 654 510 577 m 260 106 q 477 429 425 225 q 230 342 397 342 q 80 415 142 342 l 79 416 l 79 416 q 22 587 22 498 q 126 819 22 725 q 358 905 225 905 q 567 821 492 905 q 635 628 635 743 q 551 288 635 452 q 294 18 462 120 q 214 -8 254 -8 l 210 -8 l 207 -7 q 195 14 195 -1 q 260 106 195 62 z "}," ":{"ha":345,"x_min":0,"x_max":0,"o":""}," ":{"ha":345,"x_min":0,"x_max":0,"o":""},"!":{"ha":236,"x_min":37,"x_max":179,"o":"m 149 569 q 145 346 145 458 q 146 212 145 262 l 147 212 l 146 212 q 132 177 146 189 q 94 165 117 165 q 62 175 75 165 q 50 201 50 184 l 52 688 q 50 790 52 750 q 65 897 50 825 l 65 898 l 66 899 q 106 935 77 928 l 109 935 l 111 935 q 178 878 165 916 l 179 876 l 178 872 q 149 569 161 806 m 145 104 q 163 59 163 85 q 145 16 163 35 q 102 -3 127 -3 q 58 13 77 -3 q 37 56 37 31 q 54 104 37 87 q 101 122 71 122 q 145 104 127 122 z "},"\"":{"ha":280,"x_min":6,"x_max":267,"o":"m 85 694 q 66 689 76 689 q 33 715 42 689 l 33 715 l 6 921 l 7 924 q 73 963 21 963 q 115 952 98 963 q 134 922 131 942 l 135 920 l 134 918 q 90 701 120 817 l 88 697 l 85 694 m 216 694 q 198 689 208 689 q 165 715 174 689 l 165 715 l 138 921 l 139 924 q 205 963 153 963 q 246 952 230 963 q 266 922 262 942 l 267 920 l 266 918 q 222 701 252 817 l 220 696 l 216 694 z "},"#":{"ha":671,"x_min":18,"x_max":654,"o":"m 29 450 q 64 503 39 486 l 64 503 l 65 503 q 102 510 79 510 l 184 505 l 216 625 q 126 648 167 633 q 89 676 100 657 q 85 722 79 696 l 85 723 q 144 785 100 774 l 160 789 l 157 772 q 171 768 162 770 q 250 747 208 754 l 255 763 q 283 880 273 830 l 283 881 l 284 882 q 345 907 294 907 l 366 909 l 366 909 q 376 907 372 909 q 390 899 385 905 q 392 881 395 891 l 372 796 q 359 744 365 766 q 397 749 374 745 l 432 882 l 433 884 q 500 909 448 909 q 509 908 505 909 q 535 900 525 907 q 544 880 545 893 l 544 878 l 514 760 q 600 765 566 764 q 618 766 607 766 q 647 758 639 766 l 649 755 l 650 753 q 646 711 654 739 q 602 633 631 645 l 599 631 l 595 632 q 511 638 562 638 l 481 636 l 446 501 q 518 508 480 503 q 544 510 527 510 q 555 509 551 510 q 577 499 569 507 q 584 478 586 491 l 584 476 l 583 474 q 570 444 577 464 l 557 413 q 539 384 548 394 q 517 373 530 373 q 414 371 448 371 q 389 239 399 300 q 389 227 389 231 q 391 227 390 227 l 411 227 l 400 209 q 340 165 372 165 q 291 186 310 165 q 275 235 271 206 q 301 368 288 308 q 254 367 277 367 q 236 237 243 313 q 233 214 233 217 q 186 171 222 171 q 140 189 164 171 q 126 230 124 199 l 126 231 q 150 367 137 307 q 52 371 102 367 l 47 371 l 45 374 q 29 450 18 405 m 323 625 l 303 558 q 286 498 292 524 q 325 498 309 498 l 331 498 l 366 629 l 323 625 z "},"$":{"ha":851,"x_min":-1,"x_max":845,"o":"m 484 408 q 487 289 486 369 q 490 169 489 209 q 691 287 691 191 q 484 408 691 350 m 381 234 q 368 233 375 234 q 137 236 158 238 q 116 224 116 233 q 380 163 132 174 q 381 234 381 198 m 377 677 q 182 616 185 663 q 380 545 182 593 q 377 677 379 612 m 484 821 q 532 822 508 822 q 831 762 831 815 q 565 682 832 690 q 481 682 521 682 l 481 646 q 483 522 481 595 q 588 500 531 511 q 845 294 845 444 q 527 56 845 123 q 493 51 511 53 q 496 -98 495 -43 q 483 -117 494 -110 q 414 -136 460 -136 q 374 -125 382 -136 l 369 -112 q 370 -105 369 -108 q 378 47 375 -37 q 14 191 121 58 q -1 243 -1 220 q 273 355 -1 338 q 382 345 336 352 l 382 434 q 242 463 318 448 q 74 532 119 489 q 27 621 28 574 q 263 794 27 730 q 372 812 315 806 l 358 960 l 366 972 q 414 983 378 983 q 490 960 475 983 q 493 956 493 958 l 490 954 q 484 821 487 886 z "},"%":{"ha":1010,"x_min":46,"x_max":964,"o":"m 107 802 q 118 813 111 806 q 128 825 125 821 q 217 859 157 857 l 232 861 l 232 859 q 301 874 260 874 q 450 764 390 874 q 754 891 620 780 l 755 891 l 755 892 q 785 901 768 901 q 842 874 811 901 q 875 820 875 846 q 865 796 875 806 q 532 376 770 682 q 370 167 442 258 q 245 12 298 76 q 205 -7 229 -7 q 149 18 177 -7 q 118 69 118 42 q 133 101 118 87 q 579 658 300 260 q 609 700 593 678 l 612 704 q 480 680 549 684 q 481 654 481 669 q 417 504 481 566 q 275 446 356 446 q 107 503 170 446 q 46 648 46 558 q 107 802 46 731 m 530 203 q 566 330 530 274 q 718 422 614 406 q 783 434 747 434 q 916 357 861 434 q 964 203 964 288 q 895 53 964 114 q 826 9 863 24 q 749 -5 789 -5 q 585 54 643 -5 q 530 203 530 109 m 767 322 l 658 229 l 664 286 q 642 215 642 261 q 669 138 642 168 q 743 109 696 109 q 819 142 783 109 q 856 218 856 176 q 831 296 856 263 q 783 326 809 326 q 767 322 779 326 m 365 686 q 288 705 320 692 q 214 761 239 716 q 160 652 160 711 q 192 581 160 607 q 273 556 223 556 q 338 585 310 556 q 368 656 368 614 q 366 678 368 668 q 365 686 366 682 z "},"&":{"ha":770,"x_min":4,"x_max":755,"o":"m 477 865 q 435 871 459 869 q 420 871 428 871 l 412 871 q 243 814 315 871 q 170 671 170 755 q 196 570 170 614 q 328 604 266 604 q 441 572 396 604 q 479 515 479 545 q 313 423 479 423 q 186 450 244 423 q 133 268 133 373 q 185 138 133 192 q 322 84 240 84 q 486 123 421 84 q 563 252 563 166 q 551 301 563 287 q 513 316 539 316 q 429 289 474 316 q 384 239 384 263 q 386 229 384 233 q 397 222 389 224 q 451 227 416 216 q 463 230 456 228 q 474 233 471 232 q 482 235 477 234 q 490 236 487 236 q 498 235 494 235 q 506 225 503 233 q 507 212 509 218 l 501 197 q 406 151 481 151 q 317 184 344 151 q 297 257 297 208 q 379 366 297 317 q 554 427 450 408 q 633 469 599 435 q 667 538 667 503 q 653 573 667 562 q 604 585 638 585 q 588 583 596 585 q 561 568 573 576 l 560 568 l 559 567 q 540 568 550 562 q 530 585 530 574 q 631 640 530 640 q 714 610 677 640 q 755 530 755 576 q 728 437 755 492 q 666 360 699 381 q 663 358 664 359 q 663 353 663 357 q 669 341 664 349 l 669 340 l 675 328 q 682 309 680 319 q 689 256 689 286 q 570 35 689 109 q 318 -26 471 -26 q 79 54 159 -26 q 4 264 5 128 q 107 505 4 401 q 42 673 41 578 q 158 889 42 796 q 393 975 266 975 q 549 928 496 975 q 593 832 593 889 l 593 830 l 592 829 q 563 784 585 800 q 509 766 541 768 l 485 764 l 494 787 q 505 819 503 804 q 504 850 510 840 q 477 865 497 861 m 271 515 q 319 507 296 507 q 381 510 339 507 q 408 514 399 511 q 328 525 389 525 q 271 515 300 525 z "},"'":{"ha":208,"x_min":14,"x_max":194,"o":"m 24 761 q 87 783 56 761 q 119 836 119 806 q 105 859 119 852 q 97 844 109 857 q 71 836 92 836 q 20 884 20 836 q 47 931 20 911 q 101 950 71 950 q 162 924 134 950 q 194 856 194 897 q 158 766 194 806 q 73 724 121 724 q 14 762 23 724 l 24 761 z "},"(":{"ha":276,"x_min":-6,"x_max":281,"o":"m 273 14 l 214 -26 l 174 -10 l 172 -8 q 31 262 81 80 q -6 516 -6 399 q 176 1028 -6 743 l 179 1034 l 207 1037 l 211 1036 q 244 996 237 1023 l 245 990 l 242 985 q 119 543 119 800 q 156 304 119 431 q 268 97 199 152 l 269 96 l 281 83 l 273 14 z "},")":{"ha":281,"x_min":-11,"x_max":288,"o":"m 52 -24 l 9 32 l 18 79 l 22 83 q 147 328 104 142 q 180 611 180 469 q 43 964 180 884 l -11 996 l 16 1046 l 26 1044 q 243 857 175 1022 q 288 613 288 746 q 249 219 288 377 q 129 -21 210 60 l 125 -25 l 105 -27 l 52 -24 z "},"*":{"ha":446,"x_min":-2,"x_max":439,"o":"m 279 679 l 420 560 l 422 534 l 401 501 l 397 500 q 382 496 391 496 q 367 499 373 496 l 364 500 l 362 503 q 250 600 325 539 l 242 467 l 242 467 q 235 451 241 458 q 218 444 229 444 q 171 468 175 444 l 171 469 l 165 591 q 91 516 113 541 q 54 496 77 496 l 50 496 l 47 498 q 1 561 1 526 q 9 595 1 583 l 9 596 l 11 597 q 123 686 45 633 l 120 688 q 6 756 103 694 l 5 757 l 4 758 q -2 772 -2 764 q -1 778 -2 775 q 1 785 -1 781 q 4 791 3 788 q 8 798 5 793 q 14 805 12 802 q 20 812 16 807 q 27 821 25 818 q 36 830 30 823 q 45 839 42 836 l 46 840 l 47 841 q 68 849 58 849 q 77 848 73 849 q 87 843 81 847 q 98 836 93 840 q 111 826 102 833 q 125 814 119 819 q 143 799 132 809 q 163 782 155 789 l 162 807 q 175 876 162 827 l 177 883 l 259 913 l 273 907 q 294 871 294 897 q 292 852 294 859 l 290 840 l 289 840 q 272 774 277 805 l 275 777 q 395 829 296 787 l 401 831 l 435 810 l 439 774 l 279 679 z "},"+":{"ha":586,"x_min":21,"x_max":539,"o":"m 485 592 q 500 594 492 594 q 530 584 521 594 l 532 582 l 534 579 q 539 538 539 566 q 534 483 539 503 q 515 454 529 463 l 510 451 l 504 452 q 434 458 475 458 q 340 452 402 458 l 340 447 q 361 303 340 371 l 362 302 l 366 286 l 366 285 q 352 257 366 267 q 319 248 338 248 q 259 260 288 248 q 231 289 237 267 l 231 290 l 231 290 q 216 442 216 357 l 213 442 q 70 469 134 442 q 33 497 45 478 q 21 543 21 516 q 62 612 21 599 l 81 617 l 81 599 q 92 594 84 597 l 92 594 q 218 569 147 571 q 220 646 220 617 q 218 724 220 669 l 218 727 l 219 730 q 227 741 221 736 q 237 747 232 745 q 253 750 242 749 q 269 751 264 751 q 288 751 275 751 l 307 751 q 321 751 316 751 q 334 749 326 751 q 347 742 342 747 q 351 728 351 736 l 351 727 q 352 676 352 709 q 348 579 352 640 q 485 592 436 591 z "},",":{"ha":199,"x_min":-1,"x_max":199,"o":"m 27 -107 q 77 -91 56 -107 q 98 -50 98 -75 q 96 -42 98 -45 q 60 -57 80 -57 q 20 -43 38 -57 l 20 -42 q 0 -4 0 -25 q 24 69 0 43 q 94 95 49 95 q 179 37 150 95 q 199 -39 199 -1 q 166 -132 199 -93 q 77 -172 132 -172 q 7 -127 24 -172 l -1 -107 l 27 -107 z "},"-":{"ha":467,"x_min":33,"x_max":422,"o":"m 391 399 q 416 387 409 399 l 417 386 l 418 385 q 422 343 422 372 q 419 290 422 309 q 406 261 416 271 l 399 256 l 391 258 q 341 264 372 264 l 179 248 l 178 248 q 70 275 117 248 q 33 349 33 294 q 64 416 33 404 l 85 425 l 85 403 q 92 399 87 401 q 191 376 135 376 q 281 386 221 376 q 378 397 345 397 q 391 399 384 399 z "},"­":{"ha":467,"x_min":33,"x_max":422,"o":"m 391 399 q 416 387 409 399 l 417 386 l 418 385 q 422 343 422 372 q 419 290 422 309 q 406 261 416 271 l 399 256 l 391 258 q 341 264 372 264 l 179 248 l 178 248 q 70 275 117 248 q 33 349 33 294 q 64 416 33 404 l 85 425 l 85 403 q 92 399 87 401 q 191 376 135 376 q 281 386 221 376 q 378 397 345 397 q 391 399 384 399 z "},".":{"ha":153,"x_min":0,"x_max":152,"o":"m 130 82 q 152 29 152 60 q 130 -22 152 0 q 79 -45 108 -45 q 25 -26 47 -45 q 12 -12 17 -20 q 3 6 6 -3 q 0 25 1 15 q 20 83 0 62 q 77 104 41 104 q 130 82 108 104 z "},"/":{"ha":762,"x_min":0,"x_max":764,"o":"m 635 901 q 656 907 644 907 q 723 873 684 907 q 764 811 764 838 q 757 793 764 800 q 140 -54 642 654 l 139 -55 l 138 -56 q 106 -71 126 -71 q 42 -47 79 -71 q 0 4 0 -22 q 12 31 0 21 q 539 747 273 346 l 632 899 l 635 901 z "},":":{"ha":187,"x_min":15,"x_max":170,"o":"m 150 57 q 96 31 127 31 q 39 50 62 31 q 15 103 15 71 q 37 161 15 138 q 94 184 60 184 q 147 163 125 184 q 170 109 170 139 q 150 57 170 78 m 150 289 q 96 265 130 265 q 39 285 62 265 q 15 336 15 304 q 37 394 15 371 q 94 418 60 418 q 149 396 127 418 q 170 340 170 374 q 150 289 170 310 z "},";":{"ha":215,"x_min":31,"x_max":200,"o":"m 43 -122 q 101 -102 76 -122 q 127 -50 127 -81 q 113 -26 127 -31 q 101 -32 105 -26 q 75 -43 90 -43 q 45 -31 59 -43 q 31 -4 31 -18 q 110 81 31 81 q 182 31 157 81 q 200 -39 200 -5 q 171 -122 200 -87 q 93 -158 140 -158 q 36 -122 50 -158 l 43 -122 m 114 443 q 166 420 144 443 q 189 367 189 398 q 167 314 189 337 q 115 290 144 290 q 59 311 83 290 q 35 361 35 332 q 56 420 35 397 q 114 443 79 443 z "},";":{"ha":215,"x_min":31,"x_max":200,"o":"m 43 -122 q 101 -102 76 -122 q 127 -50 127 -81 q 113 -26 127 -31 q 101 -32 105 -26 q 75 -43 90 -43 q 45 -31 59 -43 q 31 -4 31 -18 q 110 81 31 81 q 182 31 157 81 q 200 -39 200 -5 q 171 -122 200 -87 q 93 -158 140 -158 q 36 -122 50 -158 l 43 -122 m 114 443 q 166 420 144 443 q 189 367 189 398 q 167 314 189 337 q 115 290 144 290 q 59 311 83 290 q 35 361 35 332 q 56 420 35 397 q 114 443 79 443 z "},"<":{"ha":410,"x_min":22,"x_max":391,"o":"m 359 644 q 290 530 354 591 l 201 445 l 309 351 q 391 229 384 286 l 391 227 l 391 227 q 376 178 391 197 q 333 160 361 160 q 295 178 314 160 q 252 231 276 195 q 126 355 212 289 q 117 362 123 357 q 28 436 35 425 l 22 444 l 28 452 q 105 521 43 478 q 238 649 172 566 q 260 690 245 658 q 290 734 275 722 l 297 740 l 306 735 q 359 644 364 702 z "},"=":{"ha":743,"x_min":28,"x_max":684,"o":"m 629 345 q 662 336 650 345 l 664 335 l 665 332 q 673 289 673 320 q 667 234 673 255 q 645 205 661 214 l 640 203 l 635 204 q 543 210 597 210 q 408 202 499 210 q 266 194 315 194 q 90 219 168 194 q 44 248 60 229 q 28 294 28 267 q 41 339 28 321 q 79 363 54 357 l 97 367 l 97 351 q 111 346 102 349 q 286 321 190 321 q 444 332 340 321 q 610 343 552 342 q 629 345 617 345 m 641 529 q 673 520 662 529 l 675 519 l 677 516 q 684 472 684 503 q 678 418 684 439 q 655 389 672 397 l 651 387 l 646 387 q 556 393 608 393 q 421 386 512 393 q 281 377 330 377 q 104 402 184 377 q 60 431 76 412 q 44 478 44 450 q 57 523 44 505 q 94 546 71 541 l 112 550 l 112 534 q 127 530 118 532 q 302 505 205 505 q 458 515 355 505 q 622 527 565 526 q 641 529 629 529 z "},">":{"ha":410,"x_min":25,"x_max":393,"o":"m 156 690 q 177 649 170 658 q 311 521 243 566 q 388 452 372 478 l 393 444 l 387 435 q 289 355 379 425 q 164 231 204 289 q 121 178 140 195 q 82 160 102 160 q 40 178 55 160 q 25 227 25 197 l 25 227 l 25 229 q 106 351 32 286 l 215 445 l 126 530 q 57 644 61 591 q 110 735 52 702 l 119 740 l 126 734 q 156 690 141 722 z "},"?":{"ha":493,"x_min":14,"x_max":492,"o":"m 111 651 q 37 688 66 651 q 14 754 14 718 q 76 884 14 830 q 241 943 142 943 q 428 881 364 943 q 492 699 492 819 q 372 503 492 629 q 260 319 260 384 q 281 264 260 291 q 333 235 303 235 l 355 235 l 362 189 l 343 163 l 330 158 q 294 152 307 152 q 189 200 225 152 q 144 313 144 251 q 249 545 144 433 l 250 545 l 250 545 q 347 648 313 605 q 380 708 380 691 l 380 709 q 380 718 380 713 q 346 806 380 777 q 237 835 312 835 q 136 800 168 825 q 104 734 104 775 q 109 727 104 732 q 130 712 113 722 q 142 676 146 702 q 111 651 139 651 m 318 75 q 338 26 338 54 q 318 -22 338 -1 q 271 -42 298 -42 q 222 -24 243 -42 q 200 22 200 -6 q 218 75 200 56 q 270 95 237 95 q 318 75 298 95 z "},"@":{"ha":918,"x_min":62,"x_max":867,"o":"m 534 646 q 553 651 543 651 q 678 429 678 651 q 656 309 678 361 q 677 294 666 294 q 741 332 720 300 q 762 427 762 364 q 665 706 762 596 q 486 785 597 785 q 254 652 360 785 q 176 319 176 541 q 264 122 189 192 q 479 35 339 52 q 734 156 652 22 l 736 159 l 739 161 q 801 182 773 182 q 831 169 820 182 q 842 136 842 156 l 842 134 l 837 117 l 836 116 q 755 14 806 54 q 632 -47 703 -27 q 469 -68 560 -68 q 172 54 281 -68 q 62 383 62 176 q 189 728 62 567 q 484 897 319 897 q 779 751 677 897 q 867 415 867 625 q 834 292 867 347 q 694 212 787 212 q 608 233 646 212 q 483 184 553 184 q 323 250 380 184 q 270 425 270 313 q 327 565 270 503 q 534 646 399 646 m 465 547 q 372 418 372 499 q 397 313 372 346 q 477 279 423 279 q 526 299 504 279 q 464 542 464 404 q 465 547 464 545 m 543 550 q 590 379 548 469 q 590 382 590 381 q 588 456 590 423 q 581 510 585 489 q 571 545 576 531 q 559 565 565 559 q 547 571 553 571 l 546 570 q 543 550 543 566 z "},"A":{"ha":682,"x_min":17,"x_max":663,"o":"m 470 916 q 595 450 531 916 q 663 -11 663 90 q 643 -24 663 -24 q 547 85 570 -19 l 509 244 q 226 233 391 229 q 115 -50 141 -40 q 92 -50 103 -55 q 28 99 17 1 q 72 287 28 119 q 19 412 19 317 q 24 424 19 422 q 33 422 30 425 q 115 388 68 388 q 394 882 271 746 q 470 916 428 916 m 274 363 l 490 369 q 422 713 435 713 q 274 363 389 691 z "},"B":{"ha":739,"x_min":-12,"x_max":730,"o":"m 78 84 q 70 110 78 84 q 62 267 62 136 q 66 354 62 322 q 127 648 66 476 q 32 627 74 627 q -12 660 -12 627 q 20 715 -8 688 q 424 840 121 840 q 596 775 525 840 q 668 619 668 711 q 575 476 668 534 q 730 283 730 444 q 650 70 730 157 q 417 -9 563 -9 q 188 9 281 -14 q 78 84 94 33 m 378 393 q 223 378 269 393 l 212 149 q 330 126 270 127 q 583 266 583 126 q 378 393 583 393 m 431 711 q 276 695 340 711 l 263 640 q 235 494 239 535 q 524 623 524 513 q 431 711 524 707 z "},"C":{"ha":777,"x_min":24,"x_max":752,"o":"m 687 175 q 720 193 687 175 q 752 132 752 210 q 376 0 752 0 q 24 320 24 0 q 163 676 24 523 q 545 842 314 842 q 675 813 608 842 q 731 733 741 783 q 644 703 722 682 q 277 589 399 736 q 165 313 165 453 q 391 123 165 146 q 561 131 500 123 q 687 175 623 140 z "},"D":{"ha":871,"x_min":5,"x_max":838,"o":"m 305 703 q 317 128 305 314 q 440 113 349 113 q 684 329 660 125 q 576 580 684 475 q 305 703 469 685 m 242 843 q 288 873 262 873 l 304 873 l 304 838 q 763 571 583 804 q 838 347 838 455 q 711 85 838 178 q 331 -7 584 -7 l 317 -7 q 257 -66 304 -61 q 194 29 194 -66 l 194 39 q 45 195 45 106 q 62 291 45 267 q 176 181 97 218 q 174 275 174 208 q 207 715 174 599 q 54 712 165 718 q 5 762 5 713 q 63 819 5 793 q 205 844 121 844 q 242 843 224 844 z "},"E":{"ha":711,"x_min":-1,"x_max":682,"o":"m 442 822 q 663 764 607 825 q 664 695 682 733 q 477 665 623 665 l 309 665 q 243 426 279 621 l 248 426 q 452 441 436 441 q 533 387 533 438 q 387 299 498 311 q 218 288 298 291 l 213 176 q 284 96 220 96 q 604 120 546 109 q 630 105 630 121 q 319 -62 630 13 q 229 -73 273 -73 q 56 100 56 -73 q 81 308 56 170 q -1 368 -1 332 q 101 410 -1 393 q 168 669 132 563 l 161 669 q 45 725 45 680 q 442 822 52 799 z "},"F":{"ha":712,"x_min":26,"x_max":690,"o":"m 457 841 q 644 812 600 841 q 690 737 689 783 q 492 683 684 683 l 323 683 q 270 480 294 640 l 275 480 q 571 495 556 495 q 653 440 653 492 q 244 342 653 353 q 239 39 239 125 q 166 -39 239 -47 q 94 119 94 -31 q 108 350 94 188 q 26 398 26 350 q 127 464 26 447 q 176 688 146 581 q 60 744 60 699 q 457 841 66 841 z "},"G":{"ha":795,"x_min":15,"x_max":785,"o":"m 563 625 q 526 723 597 723 q 461 711 509 723 q 161 313 161 586 q 411 94 161 104 q 657 320 654 104 q 441 302 458 308 q 404 323 424 296 q 406 371 393 349 q 515 402 419 392 q 694 416 610 413 q 761 387 738 416 q 785 296 785 359 q 688 75 785 157 q 385 -7 592 -7 q 15 317 15 -7 q 195 699 15 532 q 510 844 356 844 q 690 725 690 844 q 563 625 690 640 z "},"H":{"ha":636,"x_min":18,"x_max":618,"o":"m 425 780 q 491 846 425 833 q 543 838 530 846 q 562 810 556 830 q 570 760 568 789 l 589 406 q 603 200 589 361 q 591 9 618 39 q 536 -3 556 -3 q 473 62 485 -3 l 464 272 q 167 275 344 256 q 172 62 172 194 q 159 18 172 26 q 121 5 149 10 q 71 19 90 5 q 32 102 52 34 q 43 670 18 399 q 134 801 50 801 q 174 734 186 801 q 163 536 163 633 l 163 403 q 333 390 237 390 q 452 395 429 390 l 425 780 z "},"I":{"ha":267,"x_min":41,"x_max":229,"o":"m 152 835 q 229 595 222 835 q 127 -6 229 -6 q 41 283 52 -6 q 127 815 41 571 q 152 835 136 829 z "},"J":{"ha":557,"x_min":-1,"x_max":554,"o":"m 391 282 q 392 370 391 282 q 356 652 393 458 q 391 852 319 846 q 510 565 466 861 q 496 118 554 269 q 242 -33 437 -33 q 50 92 101 -33 q 51 230 -1 216 q 150 160 103 245 q 293 91 197 75 q 391 282 389 106 z "},"K":{"ha":715,"x_min":28,"x_max":705,"o":"m 28 789 q 114 844 28 844 q 186 566 186 844 q 184 460 186 521 q 583 812 383 607 q 616 825 602 825 q 671 789 662 829 q 652 725 681 749 q 270 369 489 550 q 669 146 453 130 q 705 70 705 136 q 637 -3 705 3 q 184 280 410 -16 l 196 50 q 123 -5 189 -5 q 62 21 83 -5 q 42 110 42 47 q 33 531 33 380 l 28 789 z "},"L":{"ha":496,"x_min":24,"x_max":485,"o":"m 228 883 q 252 844 256 882 q 177 151 179 334 q 475 194 241 151 q 485 170 485 194 q 277 5 485 64 q 176 0 243 0 q 24 180 25 0 q 189 859 24 479 q 228 883 200 883 z "},"M":{"ha":1061,"x_min":29,"x_max":1042,"o":"m 191 549 q 348 767 277 705 q 513 856 451 856 q 595 669 585 856 q 627 280 623 313 q 931 806 711 806 q 999 777 980 806 q 1023 682 1019 749 q 1033 163 1042 359 q 975 -37 1024 -34 q 881 52 888 -43 q 876 464 876 272 q 883 652 876 627 q 753 385 810 623 q 711 222 739 338 q 675 89 688 125 q 613 55 663 55 q 486 327 534 52 q 452 683 452 555 q 291 532 336 607 q 195 153 193 376 q 134 -24 195 -21 q 58 43 79 -28 q 29 345 29 133 q 56 632 29 500 q 89 751 77 728 q 168 799 112 799 q 191 549 222 799 z "},"N":{"ha":765,"x_min":27,"x_max":728,"o":"m 554 904 q 564 916 549 916 q 714 668 645 916 q 728 497 728 597 q 595 9 728 9 q 302 346 517 9 q 186 495 210 484 q 145 44 157 89 q 125 33 140 31 q 27 184 27 77 q 139 743 27 587 q 172 747 153 759 q 368 490 262 673 q 555 238 470 330 q 602 509 601 238 q 554 904 602 766 z "},"O":{"ha":845,"x_min":28,"x_max":819,"o":"m 490 875 q 804 568 709 875 q 819 427 819 506 q 547 14 819 110 q 375 5 465 -8 q 28 385 28 42 q 281 749 28 648 q 490 875 345 875 m 357 635 q 344 610 357 635 q 313 585 330 585 q 290 642 296 585 q 193 409 193 597 q 446 104 203 104 q 684 403 671 104 q 521 701 684 640 q 430 702 476 718 q 357 635 384 686 z "},"P":{"ha":856,"x_min":26,"x_max":835,"o":"m 198 -41 q 67 233 109 -41 q 83 720 26 507 q 264 844 133 833 q 458 846 290 846 q 696 804 593 846 q 835 613 835 745 q 216 262 835 380 q 262 47 218 173 q 198 -41 279 -41 m 196 395 q 526 491 371 421 q 682 614 682 560 q 504 703 682 703 q 211 692 324 703 q 196 437 196 606 l 196 395 z "},"Q":{"ha":847,"x_min":28,"x_max":840,"o":"m 652 237 q 684 402 680 303 q 529 693 684 640 q 306 657 420 718 q 193 409 193 596 q 446 104 203 104 q 568 134 517 104 q 471 238 524 180 q 455 330 420 302 q 621 267 497 374 q 652 237 637 251 m 642 58 q 548 14 600 33 q 375 4 465 -8 q 28 385 28 41 q 281 749 28 648 q 490 875 346 875 q 803 567 709 875 q 819 428 819 505 q 739 149 819 256 q 819 35 806 76 q 821 -56 840 -33 q 747 -37 802 -74 q 642 58 718 -18 z "},"R":{"ha":859,"x_min":16,"x_max":844,"o":"m 208 -41 q 57 356 86 -41 q 16 418 16 390 q 37 459 16 463 q 52 456 43 456 q 92 720 52 634 q 275 844 142 833 q 469 846 299 846 q 705 804 603 846 q 844 629 844 745 q 578 385 844 477 q 448 359 551 375 q 758 91 563 299 q 796 -5 796 47 q 753 -71 796 -71 q 715 -60 731 -71 q 225 262 345 302 q 272 47 228 173 q 208 -41 288 -41 m 205 435 q 536 521 380 459 q 691 631 691 583 q 514 709 691 709 q 220 699 334 709 q 205 473 205 623 l 205 435 z "},"S":{"ha":851,"x_min":-1,"x_max":845,"o":"m 532 822 q 831 762 831 815 q 565 682 832 690 q 182 616 186 682 q 588 500 182 583 q 845 294 845 444 q 527 56 845 123 q 420 47 478 47 q 14 191 130 47 q -1 243 -1 220 q 273 355 -1 338 q 509 275 509 345 q 368 233 509 241 q 137 236 158 238 q 116 224 116 233 q 387 163 132 174 q 691 287 691 168 q 242 463 691 380 q 74 532 119 489 q 27 621 28 574 q 263 794 27 730 q 532 822 386 822 z "},"T":{"ha":968,"x_min":28,"x_max":958,"o":"m 162 939 q 180 925 182 939 q 172 898 178 912 q 168 862 163 880 q 452 754 191 777 q 812 911 579 911 q 958 786 958 896 q 524 602 954 621 q 401 23 401 298 q 368 -59 401 -59 q 262 149 271 -63 q 362 608 262 425 q 96 699 198 634 q 28 798 28 741 q 162 939 28 911 m 600 746 q 829 827 798 754 q 789 843 825 843 q 600 746 690 843 z "},"U":{"ha":782,"x_min":16,"x_max":758,"o":"m 60 107 q 28 341 16 199 q 258 888 75 712 q 291 899 273 899 q 325 851 317 899 q 186 397 215 565 q 176 290 176 343 q 265 153 188 153 q 516 604 395 153 q 590 744 548 744 q 631 686 611 744 q 711 334 677 506 q 758 56 745 162 q 683 -9 758 -9 q 619 62 644 -9 q 574 399 595 133 q 422 87 532 201 q 248 0 332 0 l 245 0 q 60 107 115 3 z "},"V":{"ha":828,"x_min":-31,"x_max":805,"o":"m 71 849 q 170 767 115 859 q 367 203 226 675 q 391 155 372 181 l 640 730 q 708 851 682 838 q 721 854 711 854 q 769 829 734 854 q 805 783 805 804 q 753 616 805 736 l 534 127 q 479 31 509 65 q 360 2 425 2 q 289 27 318 2 q 228 189 260 52 q 27 712 155 458 q 71 849 -31 833 z "},"W":{"ha":969,"x_min":16,"x_max":945,"o":"m 535 -19 q 338 73 380 -19 q 231 52 277 52 q 75 115 133 52 q 16 283 16 176 q 178 681 16 531 q 366 785 333 808 q 385 720 399 762 q 155 332 155 562 q 267 162 155 162 l 283 162 q 258 328 258 259 q 325 517 258 435 q 509 607 398 607 q 612 557 574 607 q 648 438 648 509 q 435 127 648 266 q 570 93 458 93 q 737 197 673 104 q 789 514 800 289 q 661 842 777 710 q 697 899 626 901 q 815 820 737 899 q 945 459 945 717 q 848 125 945 252 q 535 -19 741 -19 m 377 311 q 393 222 377 249 q 511 433 502 309 l 511 437 q 474 482 511 481 q 391 394 427 482 q 377 311 377 346 z "},"X":{"ha":778,"x_min":33,"x_max":762,"o":"m 336 327 q 212 26 249 138 q 90 -74 182 -74 q 68 -21 68 -74 q 81 57 68 21 q 243 424 126 241 q 44 739 125 583 q 33 785 33 754 q 44 825 33 812 q 136 840 104 863 q 191 759 168 808 l 334 563 q 465 730 410 681 q 604 812 539 812 q 686 736 677 812 q 532 614 598 689 q 412 444 482 568 q 637 131 573 190 q 762 80 702 73 q 635 -43 720 -53 q 496 81 592 -43 l 336 327 z "},"Y":{"ha":816,"x_min":64,"x_max":757,"o":"m 246 916 q 262 888 269 914 q 223 774 256 865 q 191 537 191 684 q 272 368 195 385 q 452 718 341 566 q 649 870 564 870 q 757 606 751 870 q 640 292 749 410 q 339 192 532 175 q 279 -176 305 109 q 243 -196 270 -208 q 163 -49 163 -157 q 223 243 163 95 q 64 537 64 331 q 218 905 64 797 q 246 916 227 916 m 377 319 q 642 621 610 284 q 619 713 642 713 q 377 319 542 713 z "},"Z":{"ha":756,"x_min":18,"x_max":739,"o":"m 456 31 q 102 16 159 9 q 24 100 24 31 q 52 162 24 133 q 269 401 102 228 q 516 724 410 549 q 100 729 182 712 q 18 799 18 746 q 24 846 18 821 q 602 856 87 843 q 682 783 675 856 q 555 531 687 713 q 207 152 424 349 l 448 160 q 592 170 535 170 q 656 168 632 170 q 739 118 739 165 q 650 41 739 41 l 645 41 q 456 31 627 43 z "},"[":{"ha":395,"x_min":36,"x_max":375,"o":"m 36 35 q 100 87 36 58 l 113 930 q 43 984 43 961 q 75 1002 43 1000 q 162 1015 89 1002 q 286 1027 228 1027 q 336 1019 304 1027 q 375 959 375 970 q 308 931 375 935 l 211 928 q 193 927 199 928 q 190 710 190 924 q 192 431 190 515 l 194 91 l 301 88 q 368 60 368 84 q 329 1 368 50 q 279 -7 297 -7 q 155 4 221 -7 q 68 18 82 17 q 36 35 36 20 z "},"\\":{"ha":846,"x_min":33,"x_max":821,"o":"m 35 790 q 33 798 33 791 q 35 804 33 802 q 73 849 39 823 q 129 875 106 875 l 136 873 q 142 869 142 873 q 817 62 243 730 q 821 49 821 56 q 819 40 821 43 q 789 -7 815 18 q 745 -35 764 -35 l 740 -35 q 725 -22 728 -33 q 157 665 472 323 l 35 790 z "},"]":{"ha":395,"x_min":36,"x_max":375,"o":"m 375 983 q 311 931 375 960 l 298 88 q 368 34 368 57 q 336 16 368 18 q 249 3 322 16 q 125 -9 183 -9 q 75 -1 106 -9 q 36 59 36 48 q 102 87 36 83 l 200 90 q 218 91 212 90 q 220 308 220 94 l 218 723 l 216 927 l 110 930 q 43 958 43 934 q 82 1017 43 968 q 132 1025 113 1025 q 256 1014 190 1025 q 343 1000 329 1001 q 375 983 375 998 z "},"^":{"ha":458,"x_min":20,"x_max":419,"o":"m 222 651 q 155 577 191 600 q 76 551 113 551 q 36 574 52 551 q 20 620 20 596 q 26 641 20 633 q 62 634 40 634 q 149 692 108 634 q 184 768 167 715 q 230 806 189 806 q 272 777 261 806 q 309 682 296 699 q 390 649 330 649 q 419 612 419 649 q 390 562 419 562 q 271 601 315 562 q 222 651 229 637 z "},"_":{"ha":1093,"x_min":23,"x_max":1066,"o":"m 985 37 q 1016 39 996 39 q 1057 35 1044 39 q 1066 7 1066 27 q 1031 -47 1066 -39 q 871 -42 964 -42 q 638 -48 795 -42 q 401 -55 482 -55 q 109 -36 238 -55 q 23 11 23 -24 q 90 52 23 45 l 88 50 q 133 39 88 45 q 435 20 267 20 q 706 28 527 20 q 985 37 890 37 z "},"`":{"ha":328,"x_min":3,"x_max":323,"o":"m 323 652 q 273 562 311 562 q 37 667 50 666 l 33 667 q 15 660 26 667 q 3 703 3 675 l 3 711 q 37 753 3 753 q 75 743 51 753 q 170 697 93 734 q 314 646 269 652 l 323 652 z "},"a":{"ha":682,"x_min":17,"x_max":663,"o":"m 470 916 q 595 450 531 916 q 663 -11 663 90 q 643 -24 663 -24 q 547 85 570 -19 l 509 244 q 226 233 391 229 q 115 -50 141 -40 q 92 -50 103 -55 q 28 99 17 1 q 72 287 28 119 q 19 412 19 317 q 24 424 19 422 q 33 422 30 425 q 115 388 68 388 q 394 882 271 746 q 470 916 428 916 m 274 363 l 490 369 q 422 713 435 713 q 274 363 389 691 z "},"b":{"ha":739,"x_min":-12,"x_max":730,"o":"m 78 84 q 70 110 78 84 q 62 267 62 136 q 66 354 62 322 q 127 648 66 476 q 32 627 74 627 q -12 660 -12 627 q 20 715 -8 688 q 424 840 121 840 q 596 775 525 840 q 668 619 668 711 q 575 476 668 534 q 730 283 730 444 q 650 70 730 157 q 417 -9 563 -9 q 188 9 281 -14 q 78 84 94 33 m 378 393 q 223 378 269 393 l 212 149 q 330 126 270 127 q 583 266 583 126 q 378 393 583 393 m 431 711 q 276 695 340 711 l 263 640 q 235 494 239 535 q 524 623 524 513 q 431 711 524 707 z "},"c":{"ha":777,"x_min":24,"x_max":752,"o":"m 687 175 q 720 193 687 175 q 752 132 752 210 q 376 0 752 0 q 24 320 24 0 q 163 676 24 523 q 545 842 314 842 q 675 813 608 842 q 731 733 741 783 q 644 703 722 682 q 277 589 399 736 q 165 313 165 453 q 391 123 165 146 q 561 131 500 123 q 687 175 623 140 z "},"d":{"ha":871,"x_min":5,"x_max":838,"o":"m 305 703 q 317 128 305 314 q 440 113 349 113 q 684 329 660 125 q 576 580 684 475 q 305 703 469 685 m 242 843 q 288 873 262 873 l 304 873 l 304 838 q 763 571 583 804 q 838 347 838 455 q 711 85 838 178 q 331 -7 584 -7 l 317 -7 q 257 -66 304 -61 q 194 29 194 -66 l 194 39 q 45 195 45 106 q 62 291 45 267 q 176 181 97 218 q 174 275 174 208 q 207 715 174 599 q 54 712 165 718 q 5 762 5 713 q 63 819 5 793 q 205 844 121 844 q 242 843 224 844 z "},"e":{"ha":711,"x_min":-1,"x_max":682,"o":"m 442 822 q 663 764 607 825 q 664 695 682 733 q 477 665 623 665 l 309 665 q 243 426 279 621 l 248 426 q 452 441 436 441 q 533 387 533 438 q 387 299 498 311 q 218 288 298 291 l 213 176 q 284 96 220 96 q 604 120 546 109 q 630 105 630 121 q 319 -62 630 13 q 229 -73 273 -73 q 56 100 56 -73 q 81 308 56 170 q -1 368 -1 332 q 101 410 -1 393 q 168 669 132 563 l 161 669 q 45 725 45 680 q 442 822 52 799 z "},"f":{"ha":712,"x_min":26,"x_max":690,"o":"m 457 841 q 644 812 600 841 q 690 737 689 783 q 492 683 684 683 l 323 683 q 270 480 294 640 l 275 480 q 571 495 556 495 q 653 440 653 492 q 244 342 653 353 q 239 39 239 125 q 166 -39 239 -47 q 94 119 94 -31 q 108 350 94 188 q 26 398 26 350 q 127 464 26 447 q 176 688 146 581 q 60 744 60 699 q 457 841 66 841 z "},"g":{"ha":795,"x_min":15,"x_max":785,"o":"m 563 625 q 526 723 597 723 q 461 711 509 723 q 161 313 161 586 q 411 94 161 104 q 657 320 654 104 q 441 302 458 308 q 404 323 424 296 q 406 371 393 349 q 515 402 419 392 q 694 416 610 413 q 761 387 738 416 q 785 296 785 359 q 688 75 785 157 q 385 -7 592 -7 q 15 317 15 -7 q 195 699 15 532 q 510 844 356 844 q 690 725 690 844 q 563 625 690 640 z "},"h":{"ha":636,"x_min":18,"x_max":618,"o":"m 425 780 q 491 846 425 833 q 543 838 530 846 q 562 810 556 830 q 570 760 568 789 l 589 406 q 603 200 589 361 q 591 9 618 39 q 536 -3 556 -3 q 473 62 485 -3 l 464 272 q 167 275 344 256 q 172 62 172 194 q 159 18 172 26 q 121 5 149 10 q 71 19 90 5 q 32 102 52 34 q 43 670 18 399 q 134 801 50 801 q 174 734 186 801 q 163 536 163 633 l 163 403 q 333 390 237 390 q 452 395 429 390 l 425 780 z "},"i":{"ha":267,"x_min":41,"x_max":229,"o":"m 152 835 q 229 595 222 835 q 127 -6 229 -6 q 41 283 52 -6 q 127 815 41 571 q 152 835 136 829 z "},"j":{"ha":557,"x_min":-1,"x_max":554,"o":"m 391 282 q 392 370 391 282 q 356 652 393 458 q 391 852 319 846 q 510 565 466 861 q 496 118 554 269 q 242 -33 437 -33 q 50 92 101 -33 q 51 230 -1 216 q 150 160 103 245 q 293 91 197 75 q 391 282 389 106 z "},"k":{"ha":715,"x_min":28,"x_max":705,"o":"m 28 789 q 114 844 28 844 q 186 566 186 844 q 184 460 186 521 q 583 812 383 607 q 616 825 602 825 q 671 789 662 829 q 652 725 681 749 q 270 369 489 550 q 669 146 453 130 q 705 70 705 136 q 637 -3 705 3 q 184 280 410 -16 l 196 50 q 123 -5 189 -5 q 62 21 83 -5 q 42 110 42 47 q 33 531 33 380 l 28 789 z "},"l":{"ha":496,"x_min":24,"x_max":485,"o":"m 228 883 q 252 844 256 882 q 177 151 179 334 q 475 194 241 151 q 485 170 485 194 q 277 5 485 64 q 176 0 243 0 q 24 180 25 0 q 189 859 24 479 q 228 883 200 883 z "},"m":{"ha":1061,"x_min":29,"x_max":1042,"o":"m 191 549 q 348 767 277 705 q 513 856 451 856 q 595 669 585 856 q 627 280 623 313 q 931 806 711 806 q 999 777 980 806 q 1023 682 1019 749 q 1033 163 1042 359 q 975 -37 1024 -34 q 881 52 888 -43 q 876 464 876 272 q 883 652 876 627 q 753 385 810 623 q 711 222 739 338 q 675 89 688 125 q 613 55 663 55 q 486 327 534 52 q 452 683 452 555 q 291 532 336 607 q 195 153 193 376 q 134 -24 195 -21 q 58 43 79 -28 q 29 345 29 133 q 56 632 29 500 q 89 751 77 728 q 168 799 112 799 q 191 549 222 799 z "},"n":{"ha":765,"x_min":27,"x_max":728,"o":"m 554 904 q 564 916 549 916 q 714 668 645 916 q 728 497 728 597 q 595 9 728 9 q 302 346 517 9 q 186 495 210 484 q 145 44 157 89 q 125 33 140 31 q 27 184 27 77 q 139 743 27 587 q 172 747 153 759 q 368 490 262 673 q 555 238 470 330 q 602 509 601 238 q 554 904 602 766 z "},"o":{"ha":845,"x_min":28,"x_max":819,"o":"m 490 875 q 804 568 709 875 q 819 427 819 506 q 547 14 819 110 q 375 5 465 -8 q 28 385 28 42 q 281 749 28 648 q 490 875 345 875 m 357 635 q 344 610 357 635 q 313 585 330 585 q 290 642 296 585 q 193 409 193 597 q 446 104 203 104 q 684 403 671 104 q 521 701 684 640 q 430 702 476 718 q 357 635 384 686 z "},"p":{"ha":856,"x_min":26,"x_max":835,"o":"m 198 -41 q 67 233 109 -41 q 83 720 26 507 q 264 844 133 833 q 458 846 290 846 q 696 804 593 846 q 835 613 835 745 q 216 262 835 380 q 262 47 218 173 q 198 -41 279 -41 m 196 395 q 526 491 371 421 q 682 614 682 560 q 504 703 682 703 q 211 692 324 703 q 196 437 196 606 l 196 395 z "},"q":{"ha":847,"x_min":28,"x_max":840,"o":"m 652 237 q 684 402 680 303 q 529 693 684 640 q 306 657 420 718 q 193 409 193 596 q 446 104 203 104 q 568 134 517 104 q 471 238 524 180 q 455 330 420 302 q 621 267 497 374 q 652 237 637 251 m 642 58 q 548 14 600 33 q 375 4 465 -8 q 28 385 28 41 q 281 749 28 648 q 490 875 346 875 q 803 567 709 875 q 819 428 819 505 q 739 149 819 256 q 819 35 806 76 q 821 -56 840 -33 q 747 -37 802 -74 q 642 58 718 -18 z "},"r":{"ha":859,"x_min":16,"x_max":844,"o":"m 208 -41 q 57 356 86 -41 q 16 418 16 390 q 37 459 16 463 q 52 456 43 456 q 92 720 52 634 q 275 844 142 833 q 469 846 299 846 q 705 804 603 846 q 844 629 844 745 q 578 385 844 477 q 448 359 551 375 q 758 91 563 299 q 796 -5 796 47 q 753 -71 796 -71 q 715 -60 731 -71 q 225 262 345 302 q 272 47 228 173 q 208 -41 288 -41 m 205 435 q 536 521 380 459 q 691 631 691 583 q 514 709 691 709 q 220 699 334 709 q 205 473 205 623 l 205 435 z "},"s":{"ha":851,"x_min":-1,"x_max":845,"o":"m 532 822 q 831 762 831 815 q 565 682 832 690 q 182 616 186 682 q 588 500 182 583 q 845 294 845 444 q 527 56 845 123 q 420 47 478 47 q 14 191 130 47 q -1 243 -1 220 q 273 355 -1 338 q 509 275 509 345 q 368 233 509 241 q 137 236 158 238 q 116 224 116 233 q 387 163 132 174 q 691 287 691 168 q 242 463 691 380 q 74 532 119 489 q 27 621 28 574 q 263 794 27 730 q 532 822 386 822 z "},"t":{"ha":968,"x_min":28,"x_max":958,"o":"m 162 939 q 180 925 182 939 q 172 898 178 912 q 168 862 163 880 q 452 754 191 777 q 812 911 579 911 q 958 786 958 896 q 524 602 954 621 q 401 23 401 298 q 368 -59 401 -59 q 262 149 271 -63 q 362 608 262 425 q 96 699 198 634 q 28 798 28 741 q 162 939 28 911 m 600 746 q 829 827 798 754 q 789 843 825 843 q 600 746 690 843 z "},"u":{"ha":782,"x_min":16,"x_max":758,"o":"m 60 107 q 28 341 16 199 q 258 888 75 712 q 291 899 273 899 q 325 851 317 899 q 186 397 215 565 q 176 290 176 343 q 265 153 188 153 q 516 604 395 153 q 590 744 548 744 q 631 686 611 744 q 711 334 677 506 q 758 56 745 162 q 683 -9 758 -9 q 619 62 644 -9 q 574 399 595 133 q 422 87 532 201 q 248 0 332 0 l 245 0 q 60 107 115 3 z "},"v":{"ha":828,"x_min":-31,"x_max":805,"o":"m 71 849 q 170 767 115 859 q 367 203 226 675 q 391 155 372 181 l 640 730 q 708 851 682 838 q 721 854 711 854 q 769 829 734 854 q 805 783 805 804 q 753 616 805 736 l 534 127 q 479 31 509 65 q 360 2 425 2 q 289 27 318 2 q 228 189 260 52 q 27 712 155 458 q 71 849 -31 833 z "},"w":{"ha":969,"x_min":16,"x_max":945,"o":"m 535 -19 q 338 73 380 -19 q 231 52 277 52 q 75 115 133 52 q 16 283 16 176 q 178 681 16 531 q 366 785 333 808 q 385 720 399 762 q 155 332 155 562 q 267 162 155 162 l 283 162 q 258 328 258 259 q 325 517 258 435 q 509 607 398 607 q 612 557 574 607 q 648 438 648 509 q 435 127 648 266 q 570 93 458 93 q 737 197 673 104 q 789 514 800 289 q 661 842 777 710 q 697 899 626 901 q 815 820 737 899 q 945 459 945 717 q 848 125 945 252 q 535 -19 741 -19 m 377 311 q 393 222 377 249 q 511 433 502 309 l 511 437 q 474 482 511 481 q 391 394 427 482 q 377 311 377 346 z "},"x":{"ha":778,"x_min":33,"x_max":762,"o":"m 336 327 q 212 26 249 138 q 90 -74 182 -74 q 68 -21 68 -74 q 81 57 68 21 q 243 424 126 241 q 44 739 125 583 q 33 785 33 754 q 44 825 33 812 q 136 840 104 863 q 191 759 168 808 l 334 563 q 465 730 410 681 q 604 812 539 812 q 686 736 677 812 q 532 614 598 689 q 412 444 482 568 q 637 131 573 190 q 762 80 702 73 q 635 -43 720 -53 q 496 81 592 -43 l 336 327 z "},"y":{"ha":816,"x_min":64,"x_max":757,"o":"m 246 916 q 262 888 269 914 q 223 774 256 865 q 191 537 191 684 q 272 368 195 385 q 452 718 341 566 q 649 870 564 870 q 757 606 751 870 q 640 292 749 410 q 339 192 532 175 q 279 -176 305 109 q 243 -196 270 -208 q 163 -49 163 -157 q 223 243 163 95 q 64 537 64 331 q 218 905 64 797 q 246 916 227 916 m 377 319 q 642 621 610 284 q 619 713 642 713 q 377 319 542 713 z "},"z":{"ha":756,"x_min":18,"x_max":739,"o":"m 456 31 q 102 16 159 9 q 24 100 24 31 q 52 162 24 133 q 269 401 102 228 q 516 724 410 549 q 100 729 182 712 q 18 799 18 746 q 24 846 18 821 q 602 856 87 843 q 682 783 675 856 q 555 531 687 713 q 207 152 424 349 l 448 160 q 592 170 535 170 q 656 168 632 170 q 739 118 739 165 q 650 41 739 41 l 645 41 q 456 31 627 43 z "},"{":{"ha":419,"x_min":16,"x_max":354,"o":"m 307 901 q 197 831 235 879 q 169 758 169 794 q 214 678 169 725 q 268 581 268 623 q 224 483 268 518 q 261 378 261 456 q 225 279 261 349 q 193 197 193 217 q 311 59 193 113 l 332 49 l 260 -11 l 255 -11 q 118 61 193 -11 q 44 182 44 131 q 85 284 44 216 q 121 380 121 344 q 111 398 121 387 q 77 420 100 408 q 66 425 73 421 q 56 430 59 428 q 46 434 52 431 q 38 439 41 437 q 30 444 35 441 q 24 449 26 447 q 19 455 22 452 q 16 462 17 458 q 16 469 16 465 q 28 493 16 482 q 70 521 41 504 q 79 526 76 525 q 129 563 121 551 q 79 633 127 588 q 21 732 21 688 q 105 911 21 841 q 334 988 191 983 l 347 989 l 349 976 q 312 904 354 937 l 310 903 l 307 901 z "},"|":{"ha":264,"x_min":39,"x_max":207,"o":"m 39 1011 l 52 1029 l 53 1030 q 110 1044 68 1044 q 198 1017 177 1044 q 204 1003 204 1010 l 204 997 l 201 994 q 192 693 192 837 q 197 372 192 581 q 206 -52 204 68 l 207 -53 l 206 -54 q 188 -82 203 -71 q 110 -103 161 -103 q 58 -87 72 -103 l 57 -85 l 51 -68 l 51 -65 q 52 -55 51 -60 q 63 390 63 119 q 56 833 63 627 l 39 1011 z "},"}":{"ha":419,"x_min":8,"x_max":350,"o":"m 83 82 q 193 206 193 135 q 150 280 193 238 q 98 374 98 330 q 141 463 98 429 q 104 568 104 490 q 145 671 104 597 q 182 759 182 739 q 164 846 182 816 q 60 926 139 891 l 59 926 l 58 927 q 32 943 41 937 q 16 959 24 949 q 8 979 9 968 q 18 998 8 989 l 22 1001 l 27 1001 q 252 916 172 1001 q 317 765 317 850 q 279 662 317 728 q 244 566 244 602 q 255 548 244 558 q 289 526 265 537 q 300 521 292 524 q 310 516 307 517 q 319 511 313 514 q 328 506 326 508 q 335 501 331 504 q 342 495 340 498 q 346 490 344 493 q 349 483 349 486 q 350 476 350 479 q 337 452 350 463 q 296 424 325 441 q 286 418 290 420 q 237 382 245 393 q 279 320 239 362 q 330 222 330 267 q 276 82 330 138 q 119 -4 222 25 l 111 -6 l 104 -1 q 87 18 94 9 q 80 81 54 58 l 81 81 l 83 82 z "},"~":{"ha":673,"x_min":1,"x_max":674,"o":"m 670 503 q 587 399 616 429 q 494 368 555 368 q 315 420 415 368 q 183 472 215 472 q 80 380 121 472 l 73 364 l 58 374 q 1 449 1 413 l 1 456 l 3 460 q 190 616 84 616 q 353 552 243 616 q 486 492 457 492 q 556 520 516 492 q 594 568 594 547 q 594 572 594 570 l 579 602 l 612 592 q 657 564 641 583 q 674 519 674 546 l 674 518 l 671 506 l 670 503 z "},"¡":{"ha":236,"x_min":33,"x_max":181,"o":"m 62 144 q 66 367 66 254 q 65 500 66 450 l 64 502 l 65 504 q 67 509 66 507 q 70 515 68 512 q 74 519 73 517 q 80 524 76 522 q 86 529 84 527 q 94 534 89 531 q 102 538 99 537 q 111 544 104 540 q 120 549 117 547 l 123 551 l 127 551 q 156 538 145 551 q 168 506 166 526 l 169 505 l 168 25 q 169 -77 168 -37 q 153 -184 169 -113 l 153 -186 l 153 -187 q 110 -225 140 -219 l 106 -226 l 102 -224 q 34 -167 47 -206 l 33 -163 l 33 -159 q 62 144 51 -93 m 68 607 q 48 654 48 627 q 67 699 48 680 q 113 719 87 719 q 159 702 140 719 q 181 657 181 684 q 163 606 181 625 q 114 587 146 587 q 68 607 87 587 z "},"¢":{"ha":407,"x_min":5,"x_max":400,"o":"m 205 808 q 254 783 234 808 q 258 776 257 780 q 261 766 260 772 q 262 756 262 760 q 262 743 262 752 q 262 727 262 733 l 263 727 l 263 726 q 264 686 263 707 l 286 686 q 348 680 324 686 q 380 655 371 673 q 395 611 395 627 q 390 574 395 593 l 388 568 l 382 566 q 325 581 353 551 q 281 595 310 597 l 266 590 q 268 431 267 533 l 270 334 q 293 342 280 338 q 332 356 315 351 l 334 357 l 376 357 l 380 353 q 400 313 400 338 l 400 308 q 273 236 397 250 q 275 164 275 187 q 260 123 275 136 l 258 121 l 254 119 q 226 117 245 117 q 195 119 204 117 l 192 120 l 190 122 q 165 154 173 136 l 164 157 l 164 233 q 46 287 86 243 q 5 407 5 331 q 52 562 5 490 q 177 667 98 632 q 188 793 181 742 l 189 798 l 199 808 l 205 808 m 168 330 q 172 549 168 408 q 113 404 113 491 q 126 357 113 374 q 168 330 139 339 z "},"£":{"ha":672,"x_min":34,"x_max":620,"o":"m 159 502 q 180 495 165 498 l 180 495 q 267 480 231 480 l 283 480 l 288 573 l 288 574 q 289 600 288 581 l 283 724 q 298 834 283 806 q 408 895 329 895 q 529 860 463 895 q 593 753 593 823 q 593 750 593 753 q 594 746 594 748 q 593 740 594 743 q 590 734 593 737 q 584 730 588 732 l 574 725 l 567 732 q 465 784 515 784 q 409 758 420 784 q 393 630 397 733 q 380 488 389 555 q 525 500 468 500 l 541 502 l 541 502 q 569 496 561 502 l 571 494 l 573 492 q 581 456 581 482 q 576 412 581 428 q 558 389 572 396 l 554 388 l 550 389 q 469 395 500 395 q 361 385 427 395 q 311 204 343 313 q 610 -13 527 98 l 611 -14 q 620 -35 620 -27 q 617 -46 620 -41 q 608 -54 614 -52 q 598 -59 602 -57 q 584 -61 593 -60 q 570 -62 574 -62 q 556 -62 566 -62 q 486 -41 518 -62 q 373 42 451 -21 q 275 115 313 92 q 211 25 248 56 q 124 -5 173 -5 q 57 20 81 -5 q 34 90 34 45 q 71 192 34 146 q 151 239 108 239 q 239 226 193 239 q 273 379 260 289 l 243 378 q 162 392 212 378 q 104 454 104 410 q 132 503 104 492 l 159 502 m 161 156 q 130 143 144 156 q 115 109 115 128 q 117 89 115 96 q 122 80 119 81 q 128 79 124 79 q 181 95 160 79 q 214 144 202 111 q 161 156 192 156 z "},"¤":{"ha":660,"x_min":53,"x_max":621,"o":"m 121 328 q 95 447 95 379 q 132 592 95 530 q 68 675 67 635 q 82 712 69 699 q 119 726 96 726 q 129 724 124 726 q 135 720 133 722 q 140 713 136 718 q 145 707 144 708 q 172 682 161 688 l 172 682 l 202 663 q 315 699 250 691 q 391 715 340 715 q 494 675 443 715 q 540 707 525 688 q 544 712 541 708 q 548 718 547 717 q 552 723 549 720 q 557 727 555 726 q 563 729 559 728 q 570 730 566 730 q 607 717 593 730 q 621 682 621 705 q 614 657 621 669 q 583 623 606 640 q 555 599 565 610 q 594 447 594 525 q 557 326 594 386 q 600 285 572 313 q 617 249 617 269 q 596 214 617 229 q 557 199 577 199 q 548 201 552 199 q 542 205 544 203 q 535 212 539 207 q 530 218 532 216 l 529 218 l 529 219 q 488 256 507 243 q 347 210 420 210 q 193 249 256 210 q 156 216 182 238 q 117 197 139 197 q 73 214 92 197 q 53 248 53 232 l 53 250 l 54 252 q 73 278 58 264 q 121 317 87 292 l 121 328 m 270 586 q 277 611 271 593 q 210 567 229 591 q 182 463 182 532 q 224 345 182 390 q 339 300 267 300 q 442 338 391 300 q 460 353 450 349 q 513 467 513 405 q 478 579 513 531 q 458 601 466 587 q 391 632 426 632 q 357 624 366 632 l 357 623 l 264 550 l 270 586 z "},"¥":{"ha":488,"x_min":-28,"x_max":520,"o":"m 3 250 q -13 258 -8 250 q -18 275 -18 267 q -6 311 -18 288 q 1 323 -1 319 q 8 332 3 328 q 20 338 14 337 q 83 343 35 341 q 33 481 33 404 q 226 908 33 697 l 227 908 l 227 909 q 232 915 229 911 q 239 922 235 920 q 250 924 243 924 q 269 916 261 924 q 277 892 277 907 q 267 858 277 879 q 233 793 257 836 q 134 479 134 620 q 179 392 134 407 l 189 437 q 307 758 245 650 q 443 865 369 865 q 480 851 465 865 q 504 811 495 838 q 516 750 512 784 q 520 671 520 716 q 400 346 520 465 q 475 351 446 347 q 498 340 492 353 q 505 311 505 328 q 487 280 505 298 l 486 280 q 455 263 469 265 q 398 260 431 260 q 263 262 317 260 l 252 208 q 457 212 410 208 q 479 206 469 213 q 489 186 489 199 q 486 172 489 179 q 479 162 482 165 q 467 150 476 159 q 432 127 446 127 q 239 123 379 123 q 226 -40 226 30 q 216 -78 226 -62 q 187 -98 206 -94 l 184 -98 l 180 -98 q 131 -67 156 -90 q 101 -17 101 -41 q 122 123 101 20 l 0 123 q -20 131 -12 123 q -28 150 -28 138 q -16 184 -28 164 q -14 188 -16 184 q -12 193 -12 192 q -9 197 -11 194 q -5 202 -7 201 q -1 205 -3 203 q 5 207 2 207 q 11 208 7 208 l 140 208 l 151 261 q 12 251 41 256 l 5 250 l 3 250 m 422 730 q 291 387 334 645 q 391 502 356 422 q 429 686 429 585 q 422 730 429 699 z "},"¦":{"ha":191,"x_min":39,"x_max":171,"o":"m 39 23 q 41 389 39 261 l 41 402 l 84 406 q 128 410 113 410 q 132 410 130 410 q 139 411 134 411 q 149 410 144 411 q 156 405 153 409 q 159 393 159 401 l 162 256 l 171 22 q 136 -46 171 -27 l 133 -47 l 129 -47 q 56 -22 84 -47 l 53 -20 l 39 21 l 39 23 m 98 995 q 141 961 120 986 l 144 958 l 144 954 q 151 878 151 920 l 158 496 l 150 492 q 85 480 126 480 q 79 480 84 480 q 71 479 73 479 q 63 480 68 479 q 54 482 58 481 q 47 486 51 484 q 42 492 44 488 q 41 501 41 496 l 43 844 q 60 977 43 947 l 60 978 l 61 979 q 94 996 75 998 l 96 996 l 98 995 z "},"§":{"ha":552,"x_min":14,"x_max":537,"o":"m 149 -26 q 64 -54 98 -34 q 22 -127 22 -78 q 121 -201 22 -174 q 250 -222 193 -222 q 432 -164 359 -222 q 509 -1 509 -102 q 441 123 509 81 l 427 129 q 537 359 537 259 q 404 532 537 472 q 256 602 333 567 q 164 654 183 635 q 149 689 149 671 q 198 750 149 728 q 272 767 235 767 q 412 704 383 767 q 430 653 428 667 q 470 667 446 653 q 512 740 512 699 q 458 823 490 799 q 311 858 410 858 q 140 813 213 858 q 58 676 58 762 q 149 522 58 581 q 60 421 102 490 q 14 283 14 347 q 77 169 14 212 q 213 113 116 143 q 345 60 311 82 q 402 -36 402 24 q 248 -118 402 -116 q 123 -92 123 -118 q 154 -45 123 -92 l 156 -39 q 149 -26 156 -33 m 451 342 q 340 158 451 288 l 335 153 q 170 214 234 170 q 108 301 108 256 q 159 416 108 354 q 255 495 204 471 l 359 448 q 451 342 451 406 z "},"¨":{"ha":468,"x_min":76,"x_max":398,"o":"m 138 686 q 180 667 163 686 q 198 624 198 649 q 180 583 198 601 q 140 564 163 564 q 96 581 114 564 q 76 620 76 597 q 138 686 76 686 m 338 690 q 380 671 363 690 q 398 629 398 653 q 380 587 398 606 q 340 569 363 569 q 296 585 314 569 q 276 624 276 601 q 338 690 276 690 z "},"©":{"ha":920,"x_min":26,"x_max":891,"o":"m 611 408 q 629 371 629 395 q 418 301 629 301 q 292 369 358 301 q 220 522 220 441 q 298 703 220 633 q 516 777 380 777 q 608 749 593 777 q 623 707 623 720 q 617 670 623 694 q 576 660 592 660 q 508 704 537 660 l 434 684 q 308 518 308 654 q 352 419 308 467 q 439 372 395 372 q 571 408 454 372 l 611 408 m 298 838 q 166 734 224 837 q 116 562 116 643 q 218 323 116 425 q 459 220 321 220 q 694 326 598 220 q 789 570 789 429 q 675 803 789 709 q 627 837 648 823 q 658 746 658 809 q 471 854 573 840 l 304 814 q 293 825 293 814 l 298 838 m 165 840 q 491 970 302 970 q 774 841 655 970 q 891 550 891 715 q 766 239 891 371 q 459 104 638 104 q 159 229 290 104 q 26 524 26 355 q 165 840 26 709 z "},"ª":{"ha":553,"x_min":153,"x_max":400,"o":"m 326 1006 q 374 844 349 1006 q 400 684 400 718 q 393 678 400 678 q 356 717 365 680 l 341 772 q 233 768 296 767 q 190 670 200 673 q 181 670 186 668 q 157 722 153 688 q 174 787 157 728 q 153 831 153 798 q 155 834 153 834 q 159 834 157 835 q 190 822 172 822 q 297 994 250 947 q 326 1006 310 1006 m 251 814 l 334 816 q 308 936 313 936 q 251 814 295 928 z "},"«":{"ha":570,"x_min":20,"x_max":533,"o":"m 289 450 q 199 251 281 357 q 321 33 315 128 l 321 33 l 321 32 q 306 -16 321 2 q 264 -34 291 -34 q 230 -14 244 -34 q 200 46 216 6 q 31 239 163 134 l 20 248 l 28 258 q 98 332 42 279 q 178 443 144 373 q 193 490 182 449 q 221 540 203 527 l 229 545 l 237 541 q 289 450 295 507 m 500 450 q 457 321 493 377 q 427 280 450 310 q 408 252 416 264 q 532 35 513 142 l 533 32 l 532 29 q 477 -34 522 -35 q 442 -14 457 -34 q 411 46 427 7 q 242 239 374 134 l 227 251 l 243 262 q 426 531 382 362 l 429 545 l 443 542 q 489 511 475 536 q 500 450 503 487 z "},"¬":{"ha":5303,"x_min":14,"x_max":5271,"o":"m 854 987 q 1008 815 912 977 q 1074 496 1074 699 q 894 20 1074 200 q 652 -83 779 -83 q 397 48 498 -83 q 267 17 326 17 q 33 220 101 17 q 18 291 21 259 q 18 428 14 355 q 121 710 28 567 q 352 909 257 890 q 361 909 356 911 q 372 895 373 907 q 298 798 372 883 q 127 356 127 572 q 238 94 127 153 q 292 83 265 83 q 363 100 321 83 q 317 288 317 214 q 452 633 317 503 q 594 693 528 693 q 697 616 669 693 q 711 533 711 581 q 477 94 711 299 q 649 -14 561 -14 q 911 205 810 -14 q 965 550 965 361 q 839 966 965 825 q 836 982 831 972 q 854 987 841 991 m 412 328 q 448 154 412 220 q 591 433 566 287 q 606 542 606 492 l 606 550 q 554 627 606 626 q 432 473 485 627 q 412 328 412 389 m 1308 505 q 1381 234 1343 505 q 1420 -33 1420 25 q 1409 -41 1420 -41 q 1353 22 1367 -38 l 1331 115 q 1166 109 1262 106 q 1102 -56 1117 -50 q 1088 -56 1095 -59 q 1052 31 1045 -26 q 1077 140 1052 42 q 1046 212 1046 157 q 1049 219 1046 218 q 1055 218 1053 220 q 1102 198 1075 198 q 1264 485 1192 406 q 1308 505 1284 505 m 1194 184 l 1320 187 q 1280 387 1288 387 q 1194 184 1261 374 m 1556 486 q 1569 463 1572 485 q 1526 60 1527 167 q 1699 85 1563 60 q 1705 71 1705 85 q 1584 -24 1705 10 q 1525 -27 1565 -27 q 1437 77 1438 -27 q 1533 471 1437 251 q 1556 486 1539 486 m 1722 518 q 1732 510 1733 518 q 1727 494 1731 503 q 1725 473 1723 484 q 1904 411 1739 424 q 2099 502 1983 502 q 2184 429 2184 493 q 1946 323 2182 334 q 1874 -108 1874 85 q 1855 -155 1874 -155 q 1780 -2 1785 -158 q 1852 326 1780 159 q 1683 378 1743 341 q 1644 436 1644 403 q 1722 518 1644 502 m 1995 411 q 2109 453 2091 411 q 2086 463 2107 463 q 1995 411 2038 463 m 2155 979 q 3015 742 2616 979 q 3317 332 3317 551 q 3085 22 3317 118 q 2789 -28 2950 -28 q 2567 1 2701 -28 q 2520 -107 2557 -107 l 2509 -107 q 2473 -48 2486 -107 q 2462 33 2468 -3 q 2163 294 2163 144 q 2298 446 2163 383 q 2479 488 2370 473 q 2526 692 2500 692 l 2529 692 q 2573 490 2554 692 l 2605 490 q 2960 399 2865 490 q 2965 382 2965 393 q 2884 300 2965 329 q 2852 296 2866 294 q 2831 313 2832 300 q 2860 343 2830 328 q 2880 361 2890 358 q 2617 382 2798 382 l 2576 382 q 2573 77 2573 193 q 2772 54 2642 60 q 3167 237 3082 66 q 3188 335 3188 280 q 2854 733 3188 533 q 2078 921 2506 921 q 2022 909 2022 921 q 2045 894 2022 903 q 2069 874 2068 885 q 2058 859 2069 859 q 1967 924 1967 874 q 2155 979 1967 972 m 2216 289 q 2464 109 2216 199 q 2471 379 2464 224 q 2216 289 2216 360 m 3522 875 q 3638 825 3621 875 q 3741 746 3741 825 q 3606 591 3741 669 q 3450 555 3533 555 q 3346 572 3404 555 q 3295 530 3318 530 q 3287 544 3288 532 q 3304 606 3287 564 q 3270 687 3270 634 q 3425 861 3270 795 q 3522 875 3467 875 m 3352 698 q 3354 673 3348 680 q 3547 798 3461 777 q 3352 698 3379 810 m 3402 623 q 3472 608 3414 614 q 3674 712 3594 608 q 3682 743 3682 724 q 3660 766 3682 766 q 3411 633 3575 766 l 3402 623 m 3408 463 q 3453 323 3448 463 q 3394 -26 3453 -26 q 3343 142 3349 -26 q 3394 451 3343 309 q 3408 463 3398 459 m 3788 450 q 3961 415 3961 446 q 3807 369 3962 374 q 3584 331 3587 369 q 3820 263 3584 311 q 3969 144 3969 231 q 3785 5 3969 45 q 3722 0 3756 0 q 3486 84 3554 0 q 3478 114 3478 101 q 3637 179 3478 170 q 3774 133 3774 173 q 3693 109 3774 113 q 3558 110 3571 111 q 3546 103 3546 109 q 3703 68 3556 74 q 3880 140 3880 71 q 3619 241 3880 193 q 3521 282 3547 257 q 3495 334 3495 307 q 3632 434 3495 397 q 3788 450 3703 450 m 4302 498 q 4308 505 4300 505 q 4395 361 4355 505 q 4403 262 4403 319 q 4326 -22 4403 -22 q 4156 174 4281 -22 q 4089 260 4102 254 q 4065 -1 4072 24 q 4053 -8 4062 -9 q 3996 80 3996 18 q 4062 404 3996 314 q 4081 407 4070 414 q 4194 258 4133 363 q 4303 111 4253 165 q 4330 269 4329 111 q 4302 498 4330 418 m 4678 450 q 4806 416 4774 452 q 4807 376 4817 399 q 4698 359 4783 359 l 4601 359 q 4563 220 4584 334 l 4565 220 q 4683 229 4675 229 q 4731 197 4731 227 q 4646 146 4711 153 q 4548 140 4595 142 l 4545 75 q 4586 28 4549 28 q 4772 43 4738 36 q 4787 34 4787 43 q 4607 -63 4787 -20 q 4554 -69 4580 -69 q 4454 31 4454 -69 q 4468 152 4454 71 q 4421 186 4421 165 q 4480 211 4421 201 q 4519 361 4498 300 l 4515 361 q 4447 394 4447 368 q 4678 450 4451 437 m 4954 505 q 4964 488 4968 504 q 4941 433 4960 475 q 4905 340 4921 391 q 4870 155 4870 229 q 4894 90 4873 90 q 5035 328 4938 195 q 5202 478 5138 478 q 5269 363 5271 478 q 5143 52 5269 211 q 4980 -30 5065 -30 q 4940 -22 4957 -30 q 4838 -374 4902 -131 q 4817 -385 4833 -392 q 4770 -300 4770 -363 q 4856 8 4770 -193 q 4797 155 4797 59 q 4938 498 4797 294 q 4954 505 4943 505 m 4978 50 q 5161 199 5077 50 q 5208 357 5208 296 q 5185 387 5208 387 q 4974 66 5126 387 q 4978 50 4968 51 z "},"®":{"ha":920,"x_min":26,"x_max":891,"o":"m 400 549 q 490 598 450 563 q 540 689 540 641 q 484 733 540 733 q 448 729 461 733 q 392 714 406 721 l 386 711 l 386 587 q 391 549 386 563 l 400 549 m 316 701 q 302 693 303 693 q 252 673 257 673 q 216 701 216 673 q 218 709 216 707 l 260 736 q 452 793 375 793 q 562 770 507 793 q 629 697 629 743 q 608 619 629 646 q 502 524 603 612 q 612 406 570 461 l 635 372 q 650 326 650 339 q 637 321 650 321 q 577 350 600 321 l 477 460 q 401 488 453 484 l 399 488 q 386 469 386 488 l 386 371 q 338 290 386 290 q 321 296 325 290 q 316 701 316 425 m 298 838 q 166 734 224 837 q 116 562 116 643 q 218 323 116 425 q 459 220 321 220 q 694 326 598 220 q 789 570 789 429 q 675 803 789 709 q 628 836 648 823 q 651 746 651 804 q 471 854 574 840 l 304 814 q 293 825 293 814 l 298 838 m 165 840 q 491 970 302 970 q 774 841 655 970 q 891 550 891 715 q 766 239 891 371 q 459 104 638 104 q 159 229 290 104 q 26 524 26 355 q 165 840 26 709 z "},"¯":{"ha":467,"x_min":48,"x_max":409,"o":"m 382 755 q 391 757 385 757 q 405 751 401 757 q 409 715 409 741 q 397 644 409 655 q 341 652 374 652 l 179 635 q 77 660 122 635 q 48 721 48 675 q 71 775 48 766 l 71 771 q 85 758 71 766 q 191 733 132 733 q 285 744 223 733 q 382 755 349 755 z "},"°":{"ha":350,"x_min":20,"x_max":329,"o":"m 276 864 q 280 865 277 865 q 309 850 294 865 q 329 803 329 831 q 273 665 329 720 q 154 614 222 614 q 98 624 121 614 q 72 595 82 597 q 50 643 52 601 q 52 663 50 652 q 20 732 20 717 q 72 853 20 801 q 201 908 125 908 q 276 864 266 908 m 126 690 q 133 682 126 682 l 153 682 q 231 710 191 682 q 277 790 277 743 q 252 819 277 819 q 126 690 199 819 m 73 732 q 76 729 73 729 q 81 732 79 729 q 163 839 94 756 l 163 840 q 162 846 163 844 q 102 802 130 838 q 73 732 75 766 z "},"±":{"ha":586,"x_min":36,"x_max":525,"o":"m 488 595 q 501 596 492 596 q 521 590 515 596 q 525 554 525 580 q 508 484 525 494 q 435 490 477 490 q 326 482 399 490 l 326 464 q 349 315 326 386 l 351 301 q 319 279 351 279 q 265 290 290 279 q 245 310 250 295 q 231 473 231 381 l 214 473 q 76 498 137 473 q 36 559 36 514 q 66 614 36 604 l 66 611 q 87 597 66 604 q 233 571 151 571 q 236 663 236 629 q 233 742 236 686 q 289 754 237 754 l 308 754 q 337 745 337 754 l 337 743 q 338 693 338 726 q 333 579 338 652 q 486 595 433 593 l 488 595 m 469 248 q 481 249 473 249 q 498 243 495 249 q 504 207 504 234 q 489 136 504 147 q 418 143 459 143 l 214 126 q 86 151 141 126 q 48 212 48 168 q 76 267 48 258 l 76 262 q 96 250 76 258 q 229 225 155 225 q 347 235 269 225 q 469 248 427 247 z "},"²":{"ha":521,"x_min":15,"x_max":487,"o":"m 15 507 q 87 574 18 552 l 256 736 q 341 868 341 811 q 288 909 341 907 q 276 911 284 911 q 153 865 211 911 l 146 846 q 115 812 138 812 q 84 860 84 816 l 85 880 q 252 990 99 990 q 281 989 272 990 q 397 857 397 974 q 231 623 397 781 q 195 587 224 616 q 240 585 229 585 q 292 574 258 583 q 358 562 340 562 l 374 562 q 439 583 399 564 q 468 602 459 597 q 487 570 487 598 q 342 489 425 491 l 125 498 q 87 488 121 498 q 43 473 54 473 q 15 505 15 473 l 15 507 z "},"³":{"ha":420,"x_min":31,"x_max":396,"o":"m 97 918 q 135 876 97 905 l 107 875 q 92 872 98 872 q 50 921 50 872 q 92 996 50 983 q 178 1011 138 1011 q 386 864 379 1011 q 333 753 383 787 q 396 629 396 715 q 201 478 396 478 q 74 522 125 478 q 31 599 31 559 q 46 640 31 640 q 77 619 64 640 q 207 549 124 549 q 275 567 244 549 q 315 633 315 591 q 265 701 315 678 q 172 689 233 689 q 102 704 132 689 q 73 739 73 719 q 123 785 73 770 q 182 794 154 794 q 260 783 227 794 q 306 864 306 796 q 176 940 306 940 q 117 929 143 940 l 117 930 q 97 918 97 922 z "},"´":{"ha":328,"x_min":4,"x_max":322,"o":"m 14 624 q 90 667 43 624 q 265 774 210 774 q 322 711 322 774 q 288 667 322 667 q 52 562 277 667 q 4 624 13 562 l 14 624 z "},"µ":{"ha":464,"x_min":5,"x_max":458,"o":"m 97 -201 q 31 -140 62 -201 q 5 26 5 -90 l 5 184 q 142 525 5 358 l 144 526 l 145 527 q 173 537 158 537 q 207 496 201 537 l 208 493 l 207 490 q 140 229 157 325 q 134 168 134 185 q 142 123 134 136 q 165 110 150 110 q 195 128 178 110 q 227 184 211 146 q 290 376 230 195 l 290 376 q 317 429 304 412 q 347 446 329 446 q 369 435 361 446 q 384 404 377 424 q 451 136 439 256 l 458 67 l 458 53 q 444 0 458 20 q 401 -20 429 -20 q 363 -14 390 -20 l 358 -13 l 355 -9 q 335 50 335 18 q 329 121 335 82 q 259 33 302 69 q 148 -15 202 -14 l 146 -15 q 138 -14 142 -15 q 140 -87 138 -45 q 144 -169 144 -151 l 145 -174 l 142 -179 q 97 -201 123 -201 z "},"¶":{"ha":663,"x_min":27,"x_max":643,"o":"m 336 -16 q 315 -58 334 -58 q 273 -45 294 -58 q 252 -12 250 -31 q 265 212 255 63 q 277 448 275 353 q 230 443 249 443 q 89 530 153 443 q 27 707 27 614 q 77 903 27 820 q 227 1014 132 995 q 341 1000 246 1013 q 507 989 416 989 l 550 996 q 610 1003 589 1003 q 643 989 643 1003 q 525 905 643 926 q 565 340 565 642 q 554 -35 565 195 q 528 -75 552 -75 q 489 -63 507 -75 q 470 -30 469 -50 q 483 294 483 160 q 455 829 483 543 q 441 901 455 848 q 376 909 407 903 q 305 920 340 917 q 362 518 362 729 q 351 250 362 412 q 336 -16 338 60 z "},"·":{"ha":251,"x_min":15,"x_max":236,"o":"m 126 619 q 203 587 171 619 q 236 510 236 555 q 203 433 236 467 q 129 400 172 400 q 49 430 83 400 q 15 503 15 460 q 46 585 15 552 q 126 619 77 619 z "},"∙":{"ha":251,"x_min":15,"x_max":236,"o":"m 126 619 q 203 587 171 619 q 236 510 236 555 q 203 433 236 467 q 129 400 172 400 q 49 430 83 400 q 15 503 15 460 q 46 585 15 552 q 126 619 77 619 z "},"¸":{"ha":237,"x_min":1,"x_max":212,"o":"m 104 24 q 129 28 115 28 q 172 -3 165 28 q 131 -61 167 -22 q 212 -208 212 -140 q 209 -236 212 -227 q 113 -309 193 -309 q 17 -262 60 -309 q 1 -225 1 -248 q 35 -172 1 -188 q 113 -239 40 -225 q 151 -228 130 -239 q 154 -211 154 -216 q 57 -94 134 -148 q 44 -64 44 -82 q 57 -32 44 -45 q 104 24 87 -3 z "},"¹":{"ha":179,"x_min":14,"x_max":162,"o":"m 62 856 q 14 880 33 856 l 14 895 q 79 997 73 922 q 105 1017 87 1017 q 150 994 142 1017 q 153 863 151 952 l 162 511 q 133 489 149 489 q 96 498 110 489 q 90 532 90 507 q 87 618 90 561 l 84 704 q 79 860 81 754 q 62 856 66 856 z "},"º":{"ha":566,"x_min":132,"x_max":435,"o":"m 309 1006 q 429 899 393 1006 q 435 850 435 878 q 332 706 435 739 q 265 703 300 699 q 132 836 132 716 q 229 962 132 927 q 309 1006 254 1006 m 258 923 q 253 914 258 923 q 241 905 248 905 q 233 925 235 905 q 195 844 195 909 q 292 737 199 737 q 384 842 379 737 q 321 945 384 924 q 286 946 304 951 q 258 923 269 940 z "},"»":{"ha":570,"x_min":25,"x_max":538,"o":"m 338 539 q 365 490 355 527 q 379 442 376 450 q 460 332 415 373 q 530 258 516 279 l 538 248 l 527 239 q 358 46 394 134 q 328 -14 342 6 q 294 -34 314 -34 q 251 -16 267 -34 q 236 32 236 2 l 236 33 l 237 33 q 359 251 243 128 q 269 450 277 357 q 321 541 263 507 l 330 545 l 338 539 m 132 531 q 315 262 175 362 l 331 251 l 315 239 q 146 46 183 134 q 116 -14 131 7 q 80 -34 100 -34 q 26 29 37 -34 l 25 32 l 26 35 q 149 252 45 142 q 130 280 142 264 q 101 321 108 310 q 58 450 64 377 q 69 511 54 487 q 115 542 83 536 l 129 545 l 132 531 z "},"¼":{"ha":716,"x_min":56,"x_max":667,"o":"m 530 850 q 541 854 534 854 q 583 827 557 854 q 610 782 610 800 q 609 775 610 777 q 141 18 519 648 q 125 9 135 9 q 82 28 107 9 q 56 62 56 47 q 62 78 56 72 q 462 717 242 334 l 530 850 m 601 -35 q 545 -11 554 -35 q 537 106 537 20 l 537 136 l 536 136 q 397 196 449 136 q 391 248 391 214 q 456 444 391 348 q 474 458 463 458 q 492 437 492 458 q 479 390 492 422 l 480 390 q 454 265 454 328 q 460 218 454 243 q 530 189 496 189 l 536 189 l 537 235 q 594 468 537 468 q 667 293 667 468 q 658 199 667 227 q 608 146 646 164 q 626 4 610 57 l 625 4 q 627 -4 627 1 q 608 -35 627 -27 l 601 -35 m 112 754 q 63 779 82 754 l 63 793 q 128 896 122 821 q 155 916 136 916 q 199 893 192 916 q 202 761 200 850 l 212 410 q 182 387 199 387 q 145 397 160 387 q 140 431 140 406 q 137 517 139 460 l 134 603 q 128 758 132 653 q 112 754 116 754 m 601 332 q 602 227 601 256 q 609 297 609 254 q 602 383 609 354 q 601 332 601 368 z "},"½":{"ha":815,"x_min":22,"x_max":805,"o":"m 333 12 q 405 79 336 58 l 574 241 q 659 374 659 317 q 606 415 659 412 q 594 416 602 416 q 471 371 529 416 l 463 351 q 433 318 456 318 q 402 366 402 321 l 404 386 q 570 496 416 496 q 600 494 590 496 q 715 363 715 479 q 549 127 715 287 q 513 93 543 122 q 558 90 547 90 q 609 79 576 88 q 676 68 657 68 l 692 68 q 756 89 717 69 q 785 107 777 103 q 805 75 805 104 q 661 -5 743 -3 l 443 4 q 405 -7 438 4 q 361 -21 372 -21 q 333 11 333 -21 l 333 12 m 519 876 q 530 880 523 880 q 572 853 546 880 q 600 808 600 826 q 598 802 600 803 q 130 45 508 674 q 115 36 124 36 q 71 54 96 36 q 45 89 45 73 q 51 104 45 98 q 451 743 231 360 l 519 876 m 71 760 q 22 785 41 760 l 22 799 q 87 901 81 827 q 113 921 95 921 q 158 899 151 921 q 161 766 159 856 l 170 415 q 141 393 157 393 q 104 403 118 393 q 98 436 98 411 q 96 522 98 465 l 92 608 q 87 764 90 659 q 71 760 75 760 z "},"¾":{"ha":811,"x_min":39,"x_max":747,"o":"m 627 903 q 639 907 631 907 q 681 880 654 907 q 708 835 708 852 q 707 828 708 829 q 239 71 616 701 q 223 62 233 62 q 180 81 205 62 q 154 115 154 99 q 159 131 154 125 q 559 770 340 387 l 627 903 m 98 822 q 132 785 98 810 l 106 783 q 93 781 98 781 q 56 823 56 781 q 93 892 56 878 q 170 904 132 904 q 355 774 349 904 q 308 675 352 705 q 363 564 363 642 q 191 429 363 429 q 77 469 123 429 q 39 538 39 502 q 52 575 39 575 q 79 555 68 575 q 195 493 123 493 q 257 509 229 493 q 293 568 293 530 q 247 629 293 607 q 165 618 218 618 q 103 631 129 618 q 77 663 77 645 q 174 711 77 711 q 243 701 217 711 q 283 774 283 713 q 168 842 283 842 q 115 832 142 842 l 115 833 q 98 822 98 825 m 680 -29 q 625 -5 633 -29 q 616 111 616 25 l 616 142 l 615 142 q 476 201 529 142 q 471 253 471 220 q 536 450 471 353 q 554 464 542 464 q 572 443 572 464 q 558 396 572 427 l 559 396 q 533 271 533 334 q 540 224 533 249 q 610 195 576 195 l 615 195 l 616 240 q 673 473 616 473 q 747 298 747 473 q 737 205 747 232 q 687 151 726 170 q 705 9 690 63 l 704 9 q 707 1 707 7 q 687 -29 707 -22 l 680 -29 m 680 338 q 682 232 680 261 q 688 302 688 260 q 682 389 688 359 q 680 338 680 374 z "},"¿":{"ha":493,"x_min":14,"x_max":492,"o":"m 395 19 q 469 -18 439 19 q 492 -84 492 -48 q 430 -214 492 -160 q 265 -273 364 -273 q 78 -211 142 -273 q 14 -28 14 -149 q 134 168 14 41 q 246 351 246 286 q 225 406 246 379 q 173 435 203 435 l 151 435 l 144 481 l 163 507 l 176 512 q 212 518 199 518 q 317 470 281 518 q 361 357 361 419 q 257 125 361 237 l 256 125 l 256 125 q 159 22 193 65 q 125 -38 125 -21 q 160 -124 125 -92 q 269 -165 195 -155 q 371 -130 339 -155 q 402 -64 402 -105 q 397 -57 402 -62 q 376 -42 393 -52 q 337 -22 360 -32 l 307 -10 l 336 4 q 395 19 367 19 m 188 595 q 168 644 168 616 q 188 692 168 671 q 235 712 208 712 q 283 694 262 712 q 306 648 306 676 q 288 595 306 614 q 236 575 269 575 q 188 595 208 575 z "},"À":{"ha":682,"x_min":17,"x_max":663,"o":"m 470 916 q 595 450 531 916 q 663 -11 663 90 q 643 -24 663 -24 q 547 85 570 -19 l 509 244 q 226 233 391 229 q 115 -50 141 -40 q 92 -50 103 -55 q 28 99 17 1 q 72 287 28 119 q 19 412 19 317 q 24 424 19 422 q 33 422 30 425 q 115 388 68 388 q 394 882 271 746 q 470 916 428 916 m 274 363 l 490 369 q 422 713 435 713 q 274 363 389 691 z "},"Á":{"ha":682,"x_min":17,"x_max":663,"o":"m 470 916 q 595 450 531 916 q 663 -11 663 90 q 643 -24 663 -24 q 547 85 570 -19 l 509 244 q 226 233 391 229 q 115 -50 141 -40 q 92 -50 103 -55 q 28 99 17 1 q 72 287 28 119 q 19 412 19 317 q 24 424 19 422 q 33 422 30 425 q 115 388 68 388 q 394 882 271 746 q 470 916 428 916 m 274 363 l 490 369 q 422 713 435 713 q 274 363 389 691 z "},"Â":{"ha":682,"x_min":17,"x_max":663,"o":"m 470 916 q 595 450 531 916 q 663 -11 663 90 q 643 -24 663 -24 q 547 85 570 -19 l 509 244 q 226 233 391 229 q 115 -50 141 -40 q 92 -50 103 -55 q 28 99 17 1 q 72 287 28 119 q 19 412 19 317 q 24 424 19 422 q 33 422 30 425 q 115 388 68 388 q 394 882 271 746 q 470 916 428 916 m 274 363 l 490 369 q 422 713 435 713 q 274 363 389 691 z "},"Ã":{"ha":682,"x_min":17,"x_max":663,"o":"m 470 916 q 595 450 531 916 q 663 -11 663 90 q 643 -24 663 -24 q 547 85 570 -19 l 509 244 q 226 233 391 229 q 115 -50 141 -40 q 92 -50 103 -55 q 28 99 17 1 q 72 287 28 119 q 19 412 19 317 q 24 424 19 422 q 33 422 30 425 q 115 388 68 388 q 394 882 271 746 q 470 916 428 916 m 274 363 l 490 369 q 422 713 435 713 q 274 363 389 691 z "},"Ä":{"ha":682,"x_min":17,"x_max":663,"o":"m 470 916 q 595 450 531 916 q 663 -11 663 90 q 643 -24 663 -24 q 547 85 570 -19 l 509 244 q 226 233 391 229 q 115 -50 141 -40 q 92 -50 103 -55 q 28 99 17 1 q 72 287 28 119 q 19 412 19 317 q 24 424 19 422 q 33 422 30 425 q 115 388 68 388 q 394 882 271 746 q 470 916 428 916 m 274 363 l 490 369 q 422 713 435 713 q 274 363 389 691 z "},"Å":{"ha":682,"x_min":17,"x_max":663,"o":"m 470 916 q 595 450 531 916 q 663 -11 663 90 q 643 -24 663 -24 q 547 85 570 -19 l 509 244 q 226 233 391 229 q 115 -50 141 -40 q 92 -50 103 -55 q 28 99 17 1 q 72 287 28 119 q 19 412 19 317 q 24 424 19 422 q 33 422 30 425 q 115 388 68 388 q 394 882 271 746 q 470 916 428 916 m 274 363 l 490 369 q 422 713 435 713 q 274 363 389 691 z "},"Æ":{"ha":1192,"x_min":17,"x_max":1178,"o":"m 470 916 q 595 450 531 916 q 663 -11 663 90 q 643 -24 663 -24 q 547 85 570 -19 l 509 244 q 226 233 391 229 q 115 -50 141 -40 q 92 -50 103 -55 q 28 99 17 1 q 72 287 28 119 q 19 412 19 317 q 24 424 19 422 q 33 422 30 425 q 115 388 68 388 q 394 882 271 746 q 470 916 428 916 m 274 363 l 490 369 q 422 713 435 713 q 274 363 389 691 m 939 822 q 1159 764 1103 825 q 1160 695 1178 733 q 973 665 1120 665 l 805 665 q 740 426 776 621 l 745 426 q 948 441 932 441 q 1029 387 1029 438 q 884 299 994 311 q 714 288 795 291 l 709 176 q 781 96 717 96 q 1101 120 1042 109 q 1126 105 1126 121 q 816 -62 1126 13 q 725 -73 769 -73 q 552 100 552 -73 q 578 308 552 170 q 496 368 496 332 q 597 410 496 393 q 664 669 628 563 l 658 669 q 541 725 541 680 q 939 822 549 799 z "},"Ç":{"ha":777,"x_min":24,"x_max":752,"o":"m 687 175 q 720 193 687 175 q 752 132 752 210 q 376 0 752 0 q 24 320 24 0 q 163 676 24 523 q 545 842 314 842 q 675 813 608 842 q 731 733 741 783 q 644 703 722 682 q 277 589 399 736 q 165 313 165 453 q 391 123 165 146 q 561 131 500 123 q 687 175 623 140 z "},"È":{"ha":711,"x_min":-1,"x_max":682,"o":"m 442 822 q 663 764 607 825 q 664 695 682 733 q 477 665 623 665 l 309 665 q 243 426 279 621 l 248 426 q 452 441 436 441 q 533 387 533 438 q 387 299 498 311 q 218 288 298 291 l 213 176 q 284 96 220 96 q 604 120 546 109 q 630 105 630 121 q 319 -62 630 13 q 229 -73 273 -73 q 56 100 56 -73 q 81 308 56 170 q -1 368 -1 332 q 101 410 -1 393 q 168 669 132 563 l 161 669 q 45 725 45 680 q 442 822 52 799 z "},"É":{"ha":711,"x_min":-1,"x_max":682,"o":"m 442 822 q 663 764 607 825 q 664 695 682 733 q 477 665 623 665 l 309 665 q 243 426 279 621 l 248 426 q 452 441 436 441 q 533 387 533 438 q 387 299 498 311 q 218 288 298 291 l 213 176 q 284 96 220 96 q 604 120 546 109 q 630 105 630 121 q 319 -62 630 13 q 229 -73 273 -73 q 56 100 56 -73 q 81 308 56 170 q -1 368 -1 332 q 101 410 -1 393 q 168 669 132 563 l 161 669 q 45 725 45 680 q 442 822 52 799 z "},"Ê":{"ha":711,"x_min":-1,"x_max":682,"o":"m 442 822 q 663 764 607 825 q 664 695 682 733 q 477 665 623 665 l 309 665 q 243 426 279 621 l 248 426 q 452 441 436 441 q 533 387 533 438 q 387 299 498 311 q 218 288 298 291 l 213 176 q 284 96 220 96 q 604 120 546 109 q 630 105 630 121 q 319 -62 630 13 q 229 -73 273 -73 q 56 100 56 -73 q 81 308 56 170 q -1 368 -1 332 q 101 410 -1 393 q 168 669 132 563 l 161 669 q 45 725 45 680 q 442 822 52 799 z "},"Ë":{"ha":711,"x_min":-1,"x_max":682,"o":"m 442 822 q 663 764 607 825 q 664 695 682 733 q 477 665 623 665 l 309 665 q 243 426 279 621 l 248 426 q 452 441 436 441 q 533 387 533 438 q 387 299 498 311 q 218 288 298 291 l 213 176 q 284 96 220 96 q 604 120 546 109 q 630 105 630 121 q 319 -62 630 13 q 229 -73 273 -73 q 56 100 56 -73 q 81 308 56 170 q -1 368 -1 332 q 101 410 -1 393 q 168 669 132 563 l 161 669 q 45 725 45 680 q 442 822 52 799 z "},"Ì":{"ha":267,"x_min":41,"x_max":229,"o":"m 152 835 q 229 595 222 835 q 127 -6 229 -6 q 41 283 52 -6 q 127 815 41 571 q 152 835 136 829 z "},"Í":{"ha":267,"x_min":41,"x_max":229,"o":"m 152 835 q 229 595 222 835 q 127 -6 229 -6 q 41 283 52 -6 q 127 815 41 571 q 152 835 136 829 z "},"Î":{"ha":267,"x_min":41,"x_max":229,"o":"m 152 835 q 229 595 222 835 q 127 -6 229 -6 q 41 283 52 -6 q 127 815 41 571 q 152 835 136 829 z "},"Ï":{"ha":267,"x_min":41,"x_max":229,"o":"m 152 835 q 229 595 222 835 q 127 -6 229 -6 q 41 283 52 -6 q 127 815 41 571 q 152 835 136 829 z "},"Ð":{"ha":871,"x_min":5,"x_max":838,"o":"m 305 723 q 317 128 305 314 q 440 113 349 113 q 684 329 660 125 q 576 590 684 475 q 305 723 469 705 m 242 843 q 288 873 262 873 l 304 873 l 304 838 q 763 571 583 804 q 838 347 838 455 q 711 85 838 178 q 331 -7 584 -7 l 317 -7 q 257 -66 304 -61 q 194 29 194 -66 l 194 39 q 45 195 45 106 q 62 291 45 267 q 176 181 97 218 q 174 275 174 208 q 207 736 174 599 q 54 732 165 738 q 5 762 5 733 q 63 819 5 793 q 205 844 121 844 q 242 843 224 844 z "},"Ñ":{"ha":765,"x_min":27,"x_max":728,"o":"m 554 904 q 564 916 549 916 q 714 668 645 916 q 728 497 728 597 q 595 9 728 9 q 302 346 517 9 q 186 495 210 484 q 145 44 157 89 q 125 33 140 31 q 27 184 27 77 q 139 743 27 587 q 172 747 153 759 q 368 490 262 673 q 555 238 470 330 q 602 509 601 238 q 554 904 602 766 z "},"Ò":{"ha":845,"x_min":28,"x_max":819,"o":"m 490 875 q 804 568 709 875 q 819 427 819 506 q 547 14 819 110 q 375 5 465 -8 q 28 385 28 42 q 281 749 28 648 q 490 875 345 875 m 357 635 q 344 610 357 635 q 313 585 330 585 q 290 642 296 585 q 193 409 193 597 q 446 104 203 104 q 684 403 671 104 q 521 701 684 640 q 430 702 476 718 q 357 635 384 686 z "},"Ó":{"ha":845,"x_min":28,"x_max":819,"o":"m 490 875 q 804 568 709 875 q 819 427 819 506 q 547 14 819 110 q 375 5 465 -8 q 28 385 28 42 q 281 749 28 648 q 490 875 345 875 m 357 635 q 344 610 357 635 q 313 585 330 585 q 290 642 296 585 q 193 409 193 597 q 446 104 203 104 q 684 403 671 104 q 521 701 684 640 q 430 702 476 718 q 357 635 384 686 z "},"Ô":{"ha":845,"x_min":28,"x_max":819,"o":"m 490 875 q 804 568 709 875 q 819 427 819 506 q 547 14 819 110 q 375 5 465 -8 q 28 385 28 42 q 281 749 28 648 q 490 875 345 875 m 357 635 q 344 610 357 635 q 313 585 330 585 q 290 642 296 585 q 193 409 193 597 q 446 104 203 104 q 684 403 671 104 q 521 701 684 640 q 430 702 476 718 q 357 635 384 686 z "},"Õ":{"ha":845,"x_min":28,"x_max":819,"o":"m 490 875 q 804 568 709 875 q 819 427 819 506 q 547 14 819 110 q 375 5 465 -8 q 28 385 28 42 q 281 749 28 648 q 490 875 345 875 m 357 635 q 344 610 357 635 q 313 585 330 585 q 290 642 296 585 q 193 409 193 597 q 446 104 203 104 q 684 403 671 104 q 521 701 684 640 q 430 702 476 718 q 357 635 384 686 z "},"Ö":{"ha":845,"x_min":28,"x_max":819,"o":"m 490 875 q 804 568 709 875 q 819 427 819 506 q 547 14 819 110 q 375 5 465 -8 q 28 385 28 42 q 281 749 28 648 q 490 875 345 875 m 357 635 q 344 610 357 635 q 313 585 330 585 q 290 642 296 585 q 193 409 193 597 q 446 104 203 104 q 684 403 671 104 q 521 701 684 640 q 430 702 476 718 q 357 635 384 686 z "},"Ø":{"ha":845,"x_min":28,"x_max":819,"o":"m 490 875 q 804 568 709 875 q 819 427 819 506 q 547 14 819 110 q 375 5 465 -8 q 28 385 28 42 q 281 749 28 648 q 490 875 345 875 m 357 635 q 344 610 357 635 q 313 585 330 585 q 290 642 296 585 q 193 409 193 597 q 446 104 203 104 q 684 403 671 104 q 521 701 684 640 q 430 702 476 718 q 357 635 384 686 z "},"Ù":{"ha":782,"x_min":16,"x_max":758,"o":"m 60 107 q 28 341 16 199 q 258 888 75 712 q 291 899 273 899 q 325 851 317 899 q 186 397 215 565 q 176 290 176 343 q 265 153 188 153 q 516 604 395 153 q 590 744 548 744 q 631 686 611 744 q 711 334 677 506 q 758 56 745 162 q 683 -9 758 -9 q 619 62 644 -9 q 574 399 595 133 q 422 87 532 201 q 248 0 332 0 l 245 0 q 60 107 115 3 z "},"Ú":{"ha":782,"x_min":16,"x_max":758,"o":"m 60 107 q 28 341 16 199 q 258 888 75 712 q 291 899 273 899 q 325 851 317 899 q 186 397 215 565 q 176 290 176 343 q 265 153 188 153 q 516 604 395 153 q 590 744 548 744 q 631 686 611 744 q 711 334 677 506 q 758 56 745 162 q 683 -9 758 -9 q 619 62 644 -9 q 574 399 595 133 q 422 87 532 201 q 248 0 332 0 l 245 0 q 60 107 115 3 z "},"Û":{"ha":782,"x_min":16,"x_max":758,"o":"m 60 107 q 28 341 16 199 q 258 888 75 712 q 291 899 273 899 q 325 851 317 899 q 186 397 215 565 q 176 290 176 343 q 265 153 188 153 q 516 604 395 153 q 590 744 548 744 q 631 686 611 744 q 711 334 677 506 q 758 56 745 162 q 683 -9 758 -9 q 619 62 644 -9 q 574 399 595 133 q 422 87 532 201 q 248 0 332 0 l 245 0 q 60 107 115 3 z "},"Ü":{"ha":782,"x_min":16,"x_max":758,"o":"m 60 107 q 28 341 16 199 q 258 888 75 712 q 291 899 273 899 q 325 851 317 899 q 186 397 215 565 q 176 290 176 343 q 265 153 188 153 q 516 604 395 153 q 590 744 548 744 q 631 686 611 744 q 711 334 677 506 q 758 56 745 162 q 683 -9 758 -9 q 619 62 644 -9 q 574 399 595 133 q 422 87 532 201 q 248 0 332 0 l 245 0 q 60 107 115 3 z "},"Ý":{"ha":816,"x_min":64,"x_max":757,"o":"m 246 916 q 262 888 269 914 q 223 774 256 865 q 191 537 191 684 q 272 368 195 385 q 452 718 341 566 q 649 870 564 870 q 757 606 751 870 q 640 292 749 410 q 339 192 532 175 q 279 -176 305 109 q 243 -196 270 -208 q 163 -49 163 -157 q 223 243 163 95 q 64 537 64 331 q 218 905 64 797 q 246 916 227 916 m 377 319 q 642 621 610 284 q 619 713 642 713 q 377 319 542 713 z "},"à":{"ha":682,"x_min":17,"x_max":663,"o":"m 470 916 q 595 450 531 916 q 663 -11 663 90 q 643 -24 663 -24 q 547 85 570 -19 l 509 244 q 226 233 391 229 q 115 -50 141 -40 q 92 -50 103 -55 q 28 99 17 1 q 72 287 28 119 q 19 412 19 317 q 24 424 19 422 q 33 422 30 425 q 115 388 68 388 q 394 882 271 746 q 470 916 428 916 m 274 363 l 490 369 q 422 713 435 713 q 274 363 389 691 z "},"á":{"ha":682,"x_min":17,"x_max":663,"o":"m 470 916 q 595 450 531 916 q 663 -11 663 90 q 643 -24 663 -24 q 547 85 570 -19 l 509 244 q 226 233 391 229 q 115 -50 141 -40 q 92 -50 103 -55 q 28 99 17 1 q 72 287 28 119 q 19 412 19 317 q 24 424 19 422 q 33 422 30 425 q 115 388 68 388 q 394 882 271 746 q 470 916 428 916 m 274 363 l 490 369 q 422 713 435 713 q 274 363 389 691 z "},"â":{"ha":682,"x_min":17,"x_max":663,"o":"m 470 916 q 595 450 531 916 q 663 -11 663 90 q 643 -24 663 -24 q 547 85 570 -19 l 509 244 q 226 233 391 229 q 115 -50 141 -40 q 92 -50 103 -55 q 28 99 17 1 q 72 287 28 119 q 19 412 19 317 q 24 424 19 422 q 33 422 30 425 q 115 388 68 388 q 394 882 271 746 q 470 916 428 916 m 274 363 l 490 369 q 422 713 435 713 q 274 363 389 691 z "},"ã":{"ha":682,"x_min":17,"x_max":663,"o":"m 470 916 q 595 450 531 916 q 663 -11 663 90 q 643 -24 663 -24 q 547 85 570 -19 l 509 244 q 226 233 391 229 q 115 -50 141 -40 q 92 -50 103 -55 q 28 99 17 1 q 72 287 28 119 q 19 412 19 317 q 24 424 19 422 q 33 422 30 425 q 115 388 68 388 q 394 882 271 746 q 470 916 428 916 m 274 363 l 490 369 q 422 713 435 713 q 274 363 389 691 z "},"ä":{"ha":682,"x_min":17,"x_max":663,"o":"m 470 916 q 595 450 531 916 q 663 -11 663 90 q 643 -24 663 -24 q 547 85 570 -19 l 509 244 q 226 233 391 229 q 115 -50 141 -40 q 92 -50 103 -55 q 28 99 17 1 q 72 287 28 119 q 19 412 19 317 q 24 424 19 422 q 33 422 30 425 q 115 388 68 388 q 394 882 271 746 q 470 916 428 916 m 274 363 l 490 369 q 422 713 435 713 q 274 363 389 691 z "},"å":{"ha":682,"x_min":17,"x_max":663,"o":"m 470 916 q 595 450 531 916 q 663 -11 663 90 q 643 -24 663 -24 q 547 85 570 -19 l 509 244 q 226 233 391 229 q 115 -50 141 -40 q 92 -50 103 -55 q 28 99 17 1 q 72 287 28 119 q 19 412 19 317 q 24 424 19 422 q 33 422 30 425 q 115 388 68 388 q 394 882 271 746 q 470 916 428 916 m 274 363 l 490 369 q 422 713 435 713 q 274 363 389 691 z "},"æ":{"ha":1192,"x_min":17,"x_max":1178,"o":"m 470 916 q 595 450 531 916 q 663 -11 663 90 q 643 -24 663 -24 q 547 85 570 -19 l 509 244 q 226 233 391 229 q 115 -50 141 -40 q 92 -50 103 -55 q 28 99 17 1 q 72 287 28 119 q 19 412 19 317 q 24 424 19 422 q 33 422 30 425 q 115 388 68 388 q 394 882 271 746 q 470 916 428 916 m 274 363 l 490 369 q 422 713 435 713 q 274 363 389 691 m 939 822 q 1159 764 1103 825 q 1160 695 1178 733 q 973 665 1120 665 l 805 665 q 740 426 776 621 l 745 426 q 948 441 932 441 q 1029 387 1029 438 q 884 299 994 311 q 714 288 795 291 l 709 176 q 781 96 717 96 q 1101 120 1042 109 q 1126 105 1126 121 q 816 -62 1126 13 q 725 -73 769 -73 q 552 100 552 -73 q 578 308 552 170 q 496 368 496 332 q 597 410 496 393 q 664 669 628 563 l 658 669 q 541 725 541 680 q 939 822 549 799 z "},"ç":{"ha":777,"x_min":24,"x_max":752,"o":"m 687 175 q 720 193 687 175 q 752 132 752 210 q 376 0 752 0 q 24 320 24 0 q 163 676 24 523 q 545 842 314 842 q 675 813 608 842 q 731 733 741 783 q 644 703 722 682 q 277 589 399 736 q 165 313 165 453 q 391 123 165 146 q 561 131 500 123 q 687 175 623 140 z "},"è":{"ha":711,"x_min":-1,"x_max":682,"o":"m 442 822 q 663 764 607 825 q 664 695 682 733 q 477 665 623 665 l 309 665 q 243 426 279 621 l 248 426 q 452 441 436 441 q 533 387 533 438 q 387 299 498 311 q 218 288 298 291 l 213 176 q 284 96 220 96 q 604 120 546 109 q 630 105 630 121 q 319 -62 630 13 q 229 -73 273 -73 q 56 100 56 -73 q 81 308 56 170 q -1 368 -1 332 q 101 410 -1 393 q 168 669 132 563 l 161 669 q 45 725 45 680 q 442 822 52 799 z "},"é":{"ha":711,"x_min":-1,"x_max":682,"o":"m 442 822 q 663 764 607 825 q 664 695 682 733 q 477 665 623 665 l 309 665 q 243 426 279 621 l 248 426 q 452 441 436 441 q 533 387 533 438 q 387 299 498 311 q 218 288 298 291 l 213 176 q 284 96 220 96 q 604 120 546 109 q 630 105 630 121 q 319 -62 630 13 q 229 -73 273 -73 q 56 100 56 -73 q 81 308 56 170 q -1 368 -1 332 q 101 410 -1 393 q 168 669 132 563 l 161 669 q 45 725 45 680 q 442 822 52 799 z "},"ê":{"ha":711,"x_min":-1,"x_max":682,"o":"m 442 822 q 663 764 607 825 q 664 695 682 733 q 477 665 623 665 l 309 665 q 243 426 279 621 l 248 426 q 452 441 436 441 q 533 387 533 438 q 387 299 498 311 q 218 288 298 291 l 213 176 q 284 96 220 96 q 604 120 546 109 q 630 105 630 121 q 319 -62 630 13 q 229 -73 273 -73 q 56 100 56 -73 q 81 308 56 170 q -1 368 -1 332 q 101 410 -1 393 q 168 669 132 563 l 161 669 q 45 725 45 680 q 442 822 52 799 z "},"ë":{"ha":711,"x_min":-1,"x_max":682,"o":"m 442 822 q 663 764 607 825 q 664 695 682 733 q 477 665 623 665 l 309 665 q 243 426 279 621 l 248 426 q 452 441 436 441 q 533 387 533 438 q 387 299 498 311 q 218 288 298 291 l 213 176 q 284 96 220 96 q 604 120 546 109 q 630 105 630 121 q 319 -62 630 13 q 229 -73 273 -73 q 56 100 56 -73 q 81 308 56 170 q -1 368 -1 332 q 101 410 -1 393 q 168 669 132 563 l 161 669 q 45 725 45 680 q 442 822 52 799 z "},"ì":{"ha":267,"x_min":41,"x_max":229,"o":"m 152 835 q 229 595 222 835 q 127 -6 229 -6 q 41 283 52 -6 q 127 815 41 571 q 152 835 136 829 z "},"í":{"ha":267,"x_min":41,"x_max":229,"o":"m 152 835 q 229 595 222 835 q 127 -6 229 -6 q 41 283 52 -6 q 127 815 41 571 q 152 835 136 829 z "},"î":{"ha":267,"x_min":41,"x_max":229,"o":"m 152 835 q 229 595 222 835 q 127 -6 229 -6 q 41 283 52 -6 q 127 815 41 571 q 152 835 136 829 z "},"ï":{"ha":267,"x_min":41,"x_max":229,"o":"m 152 835 q 229 595 222 835 q 127 -6 229 -6 q 41 283 52 -6 q 127 815 41 571 q 152 835 136 829 z "},"ð":{"ha":871,"x_min":5,"x_max":838,"o":"m 305 723 q 317 128 305 314 q 440 113 349 113 q 684 329 660 125 q 576 590 684 475 q 305 723 469 705 m 242 843 q 288 873 262 873 l 304 873 l 304 838 q 763 571 583 804 q 838 347 838 455 q 711 85 838 178 q 331 -7 584 -7 l 317 -7 q 257 -66 304 -61 q 194 29 194 -66 l 194 39 q 45 195 45 106 q 62 291 45 267 q 176 181 97 218 q 174 275 174 208 q 207 736 174 599 q 54 732 165 738 q 5 762 5 733 q 63 819 5 793 q 205 844 121 844 q 242 843 224 844 z "},"ñ":{"ha":765,"x_min":27,"x_max":728,"o":"m 554 904 q 564 916 549 916 q 714 668 645 916 q 728 497 728 597 q 595 9 728 9 q 302 346 517 9 q 186 495 210 484 q 145 44 157 89 q 125 33 140 31 q 27 184 27 77 q 139 743 27 587 q 172 747 153 759 q 368 490 262 673 q 555 238 470 330 q 602 509 601 238 q 554 904 602 766 z "},"ò":{"ha":845,"x_min":28,"x_max":819,"o":"m 490 875 q 804 568 709 875 q 819 427 819 506 q 547 14 819 110 q 375 5 465 -8 q 28 385 28 42 q 281 749 28 648 q 490 875 345 875 m 357 635 q 344 610 357 635 q 313 585 330 585 q 290 642 296 585 q 193 409 193 597 q 446 104 203 104 q 684 403 671 104 q 521 701 684 640 q 430 702 476 718 q 357 635 384 686 z "},"ó":{"ha":845,"x_min":28,"x_max":819,"o":"m 490 875 q 804 568 709 875 q 819 427 819 506 q 547 14 819 110 q 375 5 465 -8 q 28 385 28 42 q 281 749 28 648 q 490 875 345 875 m 357 635 q 344 610 357 635 q 313 585 330 585 q 290 642 296 585 q 193 409 193 597 q 446 104 203 104 q 684 403 671 104 q 521 701 684 640 q 430 702 476 718 q 357 635 384 686 z "},"ô":{"ha":845,"x_min":28,"x_max":819,"o":"m 490 875 q 804 568 709 875 q 819 427 819 506 q 547 14 819 110 q 375 5 465 -8 q 28 385 28 42 q 281 749 28 648 q 490 875 345 875 m 357 635 q 344 610 357 635 q 313 585 330 585 q 290 642 296 585 q 193 409 193 597 q 446 104 203 104 q 684 403 671 104 q 521 701 684 640 q 430 702 476 718 q 357 635 384 686 z "},"õ":{"ha":845,"x_min":28,"x_max":819,"o":"m 490 875 q 804 568 709 875 q 819 427 819 506 q 547 14 819 110 q 375 5 465 -8 q 28 385 28 42 q 281 749 28 648 q 490 875 345 875 m 357 635 q 344 610 357 635 q 313 585 330 585 q 290 642 296 585 q 193 409 193 597 q 446 104 203 104 q 684 403 671 104 q 521 701 684 640 q 430 702 476 718 q 357 635 384 686 z "},"ö":{"ha":845,"x_min":28,"x_max":819,"o":"m 490 875 q 804 568 709 875 q 819 427 819 506 q 547 14 819 110 q 375 5 465 -8 q 28 385 28 42 q 281 749 28 648 q 490 875 345 875 m 357 635 q 344 610 357 635 q 313 585 330 585 q 290 642 296 585 q 193 409 193 597 q 446 104 203 104 q 684 403 671 104 q 521 701 684 640 q 430 702 476 718 q 357 635 384 686 z "},"ø":{"ha":845,"x_min":28,"x_max":819,"o":"m 490 875 q 804 568 709 875 q 819 427 819 506 q 547 14 819 110 q 375 5 465 -8 q 28 385 28 42 q 281 749 28 648 q 490 875 345 875 m 357 635 q 344 610 357 635 q 313 585 330 585 q 290 642 296 585 q 193 409 193 597 q 446 104 203 104 q 684 403 671 104 q 521 701 684 640 q 430 702 476 718 q 357 635 384 686 z "},"ù":{"ha":782,"x_min":16,"x_max":758,"o":"m 60 107 q 28 341 16 199 q 258 888 75 712 q 291 899 273 899 q 325 851 317 899 q 186 397 215 565 q 176 290 176 343 q 265 153 188 153 q 516 604 395 153 q 590 744 548 744 q 631 686 611 744 q 711 334 677 506 q 758 56 745 162 q 683 -9 758 -9 q 619 62 644 -9 q 574 399 595 133 q 422 87 532 201 q 248 0 332 0 l 245 0 q 60 107 115 3 z "},"ú":{"ha":782,"x_min":16,"x_max":758,"o":"m 60 107 q 28 341 16 199 q 258 888 75 712 q 291 899 273 899 q 325 851 317 899 q 186 397 215 565 q 176 290 176 343 q 265 153 188 153 q 516 604 395 153 q 590 744 548 744 q 631 686 611 744 q 711 334 677 506 q 758 56 745 162 q 683 -9 758 -9 q 619 62 644 -9 q 574 399 595 133 q 422 87 532 201 q 248 0 332 0 l 245 0 q 60 107 115 3 z "},"û":{"ha":782,"x_min":16,"x_max":758,"o":"m 60 107 q 28 341 16 199 q 258 888 75 712 q 291 899 273 899 q 325 851 317 899 q 186 397 215 565 q 176 290 176 343 q 265 153 188 153 q 516 604 395 153 q 590 744 548 744 q 631 686 611 744 q 711 334 677 506 q 758 56 745 162 q 683 -9 758 -9 q 619 62 644 -9 q 574 399 595 133 q 422 87 532 201 q 248 0 332 0 l 245 0 q 60 107 115 3 z "},"ü":{"ha":782,"x_min":16,"x_max":758,"o":"m 60 107 q 28 341 16 199 q 258 888 75 712 q 291 899 273 899 q 325 851 317 899 q 186 397 215 565 q 176 290 176 343 q 265 153 188 153 q 516 604 395 153 q 590 744 548 744 q 631 686 611 744 q 711 334 677 506 q 758 56 745 162 q 683 -9 758 -9 q 619 62 644 -9 q 574 399 595 133 q 422 87 532 201 q 248 0 332 0 l 245 0 q 60 107 115 3 z "},"ý":{"ha":816,"x_min":64,"x_max":757,"o":"m 246 916 q 262 888 269 914 q 223 774 256 865 q 191 537 191 684 q 272 368 195 385 q 452 718 341 566 q 649 870 564 870 q 757 606 751 870 q 640 292 749 410 q 339 192 532 175 q 279 -176 305 109 q 243 -196 270 -208 q 163 -49 163 -157 q 223 243 163 95 q 64 537 64 331 q 218 905 64 797 q 246 916 227 916 m 377 319 q 642 621 610 284 q 619 713 642 713 q 377 319 542 713 z "},"‘":{"ha":208,"x_min":14,"x_max":194,"o":"m 183 913 q 121 891 151 913 q 88 838 88 868 q 102 815 88 821 q 111 829 98 817 q 137 838 115 838 q 187 790 187 838 q 161 743 187 762 q 106 724 136 724 q 45 749 74 724 q 14 818 14 777 q 50 908 14 867 q 134 950 86 950 q 194 911 184 950 l 183 913 z "},"’":{"ha":208,"x_min":14,"x_max":194,"o":"m 24 761 q 87 783 56 761 q 119 836 119 806 q 105 859 119 852 q 97 844 109 857 q 71 836 92 836 q 20 884 20 836 q 47 931 20 911 q 101 950 71 950 q 162 924 134 950 q 194 856 194 897 q 158 766 194 806 q 73 724 121 724 q 14 762 23 724 l 24 761 z "},"‚":{"ha":199,"x_min":15,"x_max":184,"o":"m 27 -122 q 85 -102 60 -122 q 112 -50 112 -81 q 97 -26 112 -31 q 85 -32 90 -26 q 60 -43 75 -43 q 29 -31 43 -43 q 15 -4 15 -18 q 94 81 15 81 q 166 31 141 81 q 184 -39 184 -5 q 155 -122 184 -87 q 77 -158 125 -158 q 20 -122 34 -158 l 27 -122 z "},"“":{"ha":460,"x_min":14,"x_max":446,"o":"m 183 913 q 121 891 151 913 q 88 838 88 868 q 102 815 88 821 q 111 829 98 817 q 137 838 115 838 q 187 790 187 838 q 161 743 187 762 q 106 724 136 724 q 45 749 74 724 q 14 818 14 777 q 50 908 14 867 q 134 950 86 950 q 194 911 184 950 l 183 913 m 435 913 q 373 891 404 913 q 340 838 340 868 q 355 815 340 821 q 363 829 351 817 q 389 838 368 838 q 439 790 439 838 q 413 743 439 762 q 359 724 389 724 q 298 749 326 724 q 266 818 266 777 q 302 908 266 867 q 387 950 338 950 q 446 911 437 950 l 435 913 z "},"”":{"ha":460,"x_min":14,"x_max":446,"o":"m 24 761 q 87 783 56 761 q 119 836 119 806 q 105 859 119 852 q 97 844 109 857 q 71 836 92 836 q 20 884 20 836 q 47 931 20 911 q 101 950 71 950 q 162 924 134 950 q 194 856 194 897 q 158 766 194 806 q 73 724 121 724 q 14 762 23 724 l 24 761 m 277 761 q 339 783 309 761 q 372 836 372 806 q 357 859 372 852 q 349 844 361 857 q 323 836 345 836 q 273 884 273 836 q 299 931 273 911 q 353 950 323 950 q 414 924 386 950 q 446 856 446 897 q 410 766 446 806 q 326 724 374 724 q 266 762 275 724 l 277 761 z "},"„":{"ha":460,"x_min":14,"x_max":446,"o":"m 24 -76 q 87 -54 56 -76 q 119 -1 119 -31 q 105 22 119 16 q 97 7 109 20 q 71 -1 92 -1 q 20 47 20 -1 q 47 94 20 75 q 101 113 71 113 q 162 87 134 113 q 194 19 194 60 q 158 -71 194 -31 q 73 -113 121 -113 q 14 -75 23 -113 l 24 -76 m 277 -76 q 339 -54 309 -76 q 372 -1 372 -31 q 357 22 372 16 q 349 7 361 20 q 323 -1 345 -1 q 273 47 273 -1 q 299 94 273 75 q 353 113 323 113 q 414 87 386 113 q 446 19 446 60 q 410 -71 446 -31 q 326 -113 374 -113 q 266 -75 275 -113 l 277 -76 z "},"…":{"ha":1389,"x_min":0,"x_max":1078,"o":"m 130 82 q 152 29 152 60 q 130 -22 152 0 q 79 -45 108 -45 q 25 -26 47 -45 q 12 -12 17 -20 q 3 6 6 -3 q 0 25 1 15 q 20 83 0 62 q 77 104 41 104 q 130 82 108 104 m 593 82 q 615 29 615 60 q 593 -22 615 0 q 542 -45 571 -45 q 488 -26 511 -45 q 475 -12 480 -20 q 467 6 469 -3 q 463 25 464 15 q 484 83 463 62 q 541 104 504 104 q 593 82 571 104 m 1056 82 q 1078 29 1078 60 q 1056 -22 1078 0 q 1005 -45 1034 -45 q 951 -26 974 -45 q 938 -12 943 -20 q 930 6 932 -3 q 926 25 927 15 q 947 83 926 62 q 1004 104 967 104 q 1056 82 1034 104 z "},"‹":{"ha":1124,"x_min":18,"x_max":1101,"o":"m 250 328 q 347 545 250 452 q 568 637 444 637 q 795 538 701 637 q 886 309 886 440 q 801 95 886 187 q 591 0 713 0 q 352 96 453 0 q 250 328 250 192 m 328 309 q 363 178 328 247 q 547 65 437 77 q 729 124 656 54 q 811 305 811 197 q 744 493 811 413 q 574 574 674 574 q 401 495 475 574 q 328 309 328 416 m 18 696 q 91 862 18 793 q 262 930 163 930 q 412 862 349 930 q 473 709 473 796 q 407 546 473 615 q 245 475 340 475 q 87 540 157 475 q 18 696 18 606 m 73 709 q 126 576 73 632 q 250 519 179 519 q 371 578 321 519 q 419 711 419 635 q 360 842 419 789 q 230 883 309 891 q 99 803 152 875 q 73 709 73 753 m 1101 702 q 1031 546 1101 612 q 873 481 962 481 q 711 552 779 481 q 646 715 646 621 q 707 868 646 802 q 857 936 770 936 q 1027 868 956 936 q 1101 702 1101 799 m 1045 715 q 1019 809 1045 760 q 888 889 966 881 q 758 848 810 897 q 699 718 699 795 q 747 584 699 641 q 869 526 798 526 q 992 582 939 526 q 1045 715 1045 638 z "},"›":{"ha":1124,"x_min":18,"x_max":1101,"o":"m 293 479 q 245 475 270 475 q 87 540 157 475 q 18 696 18 606 q 91 862 18 793 q 262 930 163 930 q 412 862 349 930 q 473 709 473 796 q 454 615 473 659 q 568 637 508 637 q 664 622 619 637 q 646 715 646 665 q 707 868 646 802 q 857 936 770 936 q 1027 868 956 936 q 1101 702 1101 799 q 1031 546 1101 612 q 873 481 962 481 q 837 484 854 481 q 886 309 886 405 q 801 95 886 187 q 591 0 713 0 q 352 96 453 0 q 250 328 250 192 q 293 479 250 410 z "}}}
